/* XPM */
static char * 01_xpm[] = {
"64 64 10 1",
" 	c #509B66",
".	c #000000",
"+	c #303030",
"@	c #F8D050",
"#	c #705038",
"$	c #C8A040",
"%	c #987038",
"&	c #E8E8F8",
"*	c #C85838",
"=	c #903818",
"                                                                ",
"                                                                ",
"                                                                ",
"                                                                ",
"                                                                ",
"                                                                ",
"                                                                ",
"                                                                ",
"                                                                ",
"                                                                ",
"                                                                ",
"                                                                ",
"                                                                ",
"                                                                ",
"                                                                ",
"                                                                ",
"                                                                ",
"                                                                ",
"                                                                ",
"                                                                ",
"                                                                ",
"                                                                ",
"                                                                ",
"                                                                ",
"                ......                    ......                ",
"                ......                    ......                ",
"                ..++++..                ..++++..                ",
"                ..++++..                ..++++..                ",
"                ..++++@@..            ..@@++++..                ",
"                ..++++@@..            ..@@++++..                ",
"                  ..@@@@@@..########..@@@@@@..                  ",
"                  ..@@@@@@..########..@@@@@@..                  ",
"                  ..$$@@@@%%$$@@@@$$%%@@@@$$..                  ",
"                  ..$$@@@@%%$$@@@@$$%%@@@@$$..                  ",
"                    ..$$@@@@@@@@@@@@@@@@@@..                    ",
"                    ..$$@@@@@@@@@@@@@@@@@@..                    ",
"                      ++$$@@@@@@@@@@@@$$++                      ",
"                      ++$$@@@@@@@@@@@@$$++                      ",
"                    ..@@@@@@@@@@@@@@@@@@@@..                    ",
"                    ..@@@@@@@@@@@@@@@@@@@@..                    ",
"                ++++..@@@@&&@@@@@@@@&&@@@@..                    ",
"                ++++..@@@@&&@@@@@@@@&&@@@@..                    ",
"                ++%%..**@@..@@@@@@@@..@@**..                    ",
"                ++%%..**@@..@@@@@@@@..@@**..                    ",
"                ++%%%%==**@@@@%%%%@@@@**==                      ",
"                ++%%%%==**@@@@%%%%@@@@**==                      ",
"                ++%%%%++..++$$$$$$$$++..++                      ",
"                ++%%%%++..++$$$$$$$$++..++                      ",
"                  ++%%##$$##++++++++##$$####                    ",
"                  ++%%##$$##++++++++##$$####                    ",
"                    ##..$$@@##$$$$##@@$$..##                    ",
"                    ##..$$@@##$$$$##@@$$..##                    ",
"                    ##$$....$$$$$$$$....$$##                    ",
"                    ##$$....$$$$$$$$....$$##                    ",
"                      ..$$$$$$$$$$$$$$$$##                      ",
"                      ..$$$$$$$$$$$$$$$$##                      ",
"                        ....++++++++$$%%..                      ",
"                        ....++++++++$$%%..                      ",
"                                    ....                        ",
"                                    ....                        ",
"                                                                ",
"                                                                ",
"                                                                ",
"                                                                "};
