/* XPM */
static char * rocket_xpm[] = {
"64 64 16 1",
" 	c #509B66",
".	c #484850",
"+	c #303038",
"@	c #606068",
"#	c #000000",
"$	c #285870",
"%	c #509890",
"&	c #60C8A8",
"*	c #D89870",
"=	c #784040",
"-	c #F8D0B8",
";	c #D0C8E8",
">	c #E8E8F8",
",	c #A8A0C8",
"'	c #D85810",
")	c #C8A848",
"                                                                ",
"                                                                ",
"                                                                ",
"                                                                ",
"                                                                ",
"                                                                ",
"                                                                ",
"                                                                ",
"                          ..........                            ",
"                          ..........                            ",
"                      ++..@@@@@@@@@@..++                        ",
"                      ++..@@@@@@@@@@..++                        ",
"                    ++..@@@@@@@@@@@@@@..++                      ",
"                    ++..@@@@@@@@@@@@@@..++                      ",
"                  ++..@@@@@@@@@@@@@@@@@@..++                    ",
"                  ++..@@@@@@@@@@@@@@@@@@..++                    ",
"                ##....@@@@@@@@@@@@@@@@@@....##                  ",
"                ##....@@@@@@@@@@@@@@@@@@....##                  ",
"                ##....@@@@@@@@@@@@@@@@@@....##                  ",
"                ##....@@@@@@@@@@@@@@@@@@....##                  ",
"              $$##....@@@@@@@@@@@@@@@@@@....##$$                ",
"              $$##....@@@@@@@@@@@@@@@@@@....##$$                ",
"              $$%%##....@@@@@@@@@@@@@@....##%%$$                ",
"              $$%%##....@@@@@@@@@@@@@@....##%%$$                ",
"            $$&&&&##....@@@@@@@@@@@@@@....##&&&&$$              ",
"            $$&&&&##....@@@@@@@@@@@@@@....##&&&&$$              ",
"            $$&&&&%%++....@@@@@@@@@@....++%%&&&&$$              ",
"            $$&&&&%%++....@@@@@@@@@@....++%%&&&&$$              ",
"              $$&&%%%%++++..........++++%%%%&&$$                ",
"              $$&&%%%%++++..........++++%%%%&&$$                ",
"              $$$$&&$$**++++++++++++++**$$&&$$$$                ",
"              $$$$&&$$**++++++++++++++**$$&&$$$$                ",
"                ==$$%%--%%**********%%--%%$$==                  ",
"                ==$$%%--%%**********%%--%%$$==                  ",
"                ==**$$--;;$$------$$;;--$$**==                  ",
"                ==**$$--;;$$------$$;;--$$**==                  ",
"                  ====**>>##------##>>**====                    ",
"                  ====**>>##------##>>**====                    ",
"                    ##**--------------**##                      ",
"                    ##**--------------**##                      ",
"                    ####**----**----**####                      ",
"                    ####**----**----**####                      ",
"                  ==@@@@++++******++++@@@@==                    ",
"                  ==@@@@++++******++++@@@@==                    ",
"                ##,,''@@@@))++==++))@@@@'',,..                  ",
"                ##,,''@@@@))++==++))@@@@'',,..                  ",
"              ..;;,,,,##@@@@))==))@@@@##,,,,;;..                ",
"              ..;;,,,,##@@@@))==))@@@@##,,,,;;..                ",
"              ..;;;;..##,,@@''@@''@@,,##..;;;;..                ",
"              ..;;;;..##,,@@''@@''@@,,##..;;;;..                ",
"                ....##..++,,,,,,,,,,++..##....                  ",
"                ....##..++,,,,,,,,,,++..##....                  ",
"                    ++......++++++......++                      ",
"                    ++......++++++......++                      ",
"                    ##++==..######..==++##                      ",
"                    ##++==..######..==++##                      ",
"                    ##,,,,##      ##,,,,##                      ",
"                    ##,,,,##      ##,,,,##                      ",
"                      ####          ####                        ",
"                      ####          ####                        ",
"                                                                ",
"                                                                ",
"                                                                ",
"                                                                "};
