/* XPM */
static char * mewtwo_xpm[] = {
"64 64 11 1",
" 	c #509B66",
".	c #8888B0",
"+	c #505068",
"@	c #F8F8F8",
"#	c #E0E0F0",
"$	c #B8B8D0",
"%	c #101010",
"&	c #703090",
"*	c #8858A8",
"=	c #B080D0",
"-	c #E0B0F8",
"                                                                ",
"                                          ..+                   ",
"                                         .@@@+                  ",
"                                         .@@@+                  ",
"                            .+       ....#@@#+                  ",
"                           .@@.+  ..$@@####.#+                  ",
"                          .@@@@@%.@@@@@@@###.+                  ",
"                          +@@@@@@$.@@@@@@####+                  ",
"                           +#@@@@@#.@@@@@####@+                 ",
"                            +#@@@@@#$#@@#####@$+                ",
"                &&&&&       +###@@@##########@@%                ",
"             &**====***      +###############$@%                ",
"           &*=====******      .#######$$#####$@+                ",
"         &*===**%&  %&**&     +######@@@$#####*#                ",
"       &*====*&%      %**&     .###.+#@@@.####&+                ",
"      *=====&%         %*&     +####+.+@@#####$+                ",
"     *-====*%          &**&    +####%-%+@.@@###+                ",
"    *---==*&            &*&   +#+###=%*@+.@@@###%               ",
"    &---==*%            &*&   .#+@#######@@@@.##%               ",
"   &==-==*&           ..+**% +##+@@######.%.@##+                ",
"   %=====*%          .##%**% +##$+%%+$##$###%%+                 ",
"   %*===*&          .#@@#%*% +#$$%   +$$++%%                    ",
"   %*****%          .#@@#%*%  .$$$+++.$$+   ..+                 ",
"    %***%            +##%%*&  +++####..$$+++@@@+                ",
"     %%%             %%+$%%  %%.#..####.$$$#@@#+                ",
"                    *=%$$$% +##+.##$####$$##@@#.                ",
"                   ..%%$$$$+@@#$%###+#####.####%                ",
"                  .##%$$$$$+@@#$%##+.######$###%                ",
"                 +#@@#.$$$$$+#$%$.++$+#####.$$%                 ",
"                 +#@@#.$$$$$$++$+   +$+$$$.%..%                 ",
"                  +##%$$$%+$$+%%     +$+%%$$$$%                 ",
"                 &=%%%%+%$$+%%       +$#####$$%+                ",
"                 &====**+%%%          +######$$%+               ",
"                 *====**&             +#######$%$+              ",
"                *=====**&            +######$*&$%$+%            ",
"                &======**&         +++.####$=--+%+$$+%%         ",
"                &======**&       +.@@##$###*----++$$$$$+%       ",
"                &=======**&     +@@@@@##.#$&-----&+$$$$$$%      ",
"                &========**&&  +@@@@@@@#.$$&-----&$+$$$+$$%     ",
"                &*=========**&+@@@@@@@@##.&==---==&$+$++$$$%    ",
"                **============.@@@@@@@@##+&=======&$+$$#+$$%    ",
"                 &*===========.@@@@@@@@##+*=======&$$%$#+%#+    ",
"                 %**=========+@@@@@@@@###+========&$$%%%$$%     ",
"                 %***========+@@@@@@@###.*=======&$$$%  %%      ",
"                  &****======+#@@@@@####+========&$$$%          ",
"                  %*******===+##@@#####$&=======&$$$+           ",
"                   %*********+#########%**=====*&$$$%           ",
"                    %*********.#######%*****==*&$$$%            ",
"                     %********+######%********&$$$%             ",
"                      %&*******+###$%********%$$$+              ",
"                        %&*****+$$$%*******%%$$$+               ",
"                          %%&**+$$$%****%%% %$$$%               ",
"                             %+$$$%%%%%%   %$$$$$+              ",
"                              +$$$%       %$$$$$$+              ",
"                             +###$%       +..$$$$$+             ",
"                             .@###%+     %$$$.$$$$$++           ",
"                            .@@@##+$%    %$$$.$$$####.%%        ",
"                            .@@@##+$%     %%%%$$#$..##@@%       ",
"                           +.@@###+$%         %%##@@+#@@%       ",
"                         .+###..##$+            %#@@%$##%       ",
"                        .@@##+#@@#$%            %$$$%%%%        ",
"                        +@@##+#@@#+              %%%            ",
"                        +##$++$$$$%                             ",
"                         %%%% %%%%                              "};
