/* XPM */
static char * player_xpm[] = {
"60 60 14 1",
" 	c #509B66",
".	c #C22424",
"+	c #171C31",
"@	c #000000",
"#	c #573A23",
"$	c #402717",
"%	c #AC7B5D",
"&	c #21110D",
"*	c #C1AC8F",
"=	c #787E97",
"-	c #A4A8B5",
";	c #2C65B5",
">	c #1D438A",
",	c #FFFFFF",
"                                                            ",
"                                                            ",
"                                                            ",
"                                                            ",
"                                                            ",
"                                                            ",
"                                                            ",
"                                                            ",
"                                                            ",
"                                                            ",
"                                                            ",
"                                                            ",
"                  @@@@@@@@  @@@@                            ",
"                  @&&&&&&&  &&&@                            ",
"                  @&$$$$$&&&$$&@@@@@                        ",
"                  @&$####$&$##$&&&&&                        ",
"                  @&&$####$$##$$$$$$&@                      ",
"                  &&&$####$####$####$&                      ",
"                @&&$$################$&@                    ",
"                &&$$##################$&                    ",
"              @&&$#####################$&@                  ",
"              @&$$#####################$&@                  ",
"              @&$$####$$######$$$$#####$&@                  ",
"              @&$$####$$######$#########$&                  ",
"              @&$$$$$$$$######$#%%%%####$&&@                ",
"              @&$$$$$$$$########%%%%####$$&@                ",
"              @&$$##$$$$####$#%%%%%%%%#$$$&@                ",
"              @&$$############%%%%%%%%#$$$&@                ",
"              @&$$####%%#$##%%#%%**%%#$&$$&@                ",
"              @&$$####%%%###%%##****#@@&&&&@                ",
"              @&$$$$##%%%%#%%%##****#&@@&&                  ",
"              @&&$$$##%%%%%%**%%****%#$@@@                  ",
"                &&$$$#%%%%%**********%#@                    ",
"                @&&$$#%%%%***********%#@                    ",
"                  &&$###%%%**********%#@                    ",
"                  @&&$$#%%%%********%%#@                    ",
"                    &&$###%%%%%%%%%%##                      ",
"                    @&$$$#%%%%%%%%%%#@                      ",
"                    @&$$$##%======##$@                      ",
"                    @&&$$$##======#$&@                      ",
"                    @&$$####====-==$&@                      ",
"                    ########===---=$##                      ",
"                  @#%**%####==----=#%%#@                    ",
"                  @#****%###==---==#%%#@                    ",
"                  @#****%###;;====>#%%#@                    ",
"                  @#%**==>>>;;;;;;>#%%#@                    ",
"                   ##===;;;;>>;;;;>$##$                     ",
"                   +@+>>>;;>>>>;;>+@@@+                     ",
"                   +@++#>>>+++>>>#+@@++                     ",
"                 +++@&$$#$&@@&$$#$&@+++++                   ",
"                 ++++++$$$&&++&$$$+++++++                   ",
"                   ++++++++++++++++++++                     ",
"                   ++++++++++++++++++++                     ",
"                                                            ",
"                                                            ",
"                                                            ",
"                                                            ",
"                                                            ",
"                                                            ",
"                                                            "};
