/* XPM */
static char *_cdd26c3aa104302e9c2cd3641befe7fO6swmfitszh8JTkL[] = {
/* columns rows colors chars-per-pixel */
"30 30 10 1 ",
"  c None",
". c black",
"X c #171C31",
"o c #1D235D",
"O c #9E2E46",
"+ c #33418A",
"@ c #425B9E",
"# c #4D8AB3",
"$ c #65B1B8",
"% c white",
/* pixels */
"                              ",
"                              ",
"                              ",
"                              ",
"                              ",
"                              ",
"                              ",
"                              ",
"                              ",
"                              ",
"                              ",
"                              ",
"            oooooooo          ",
"           o@#######o         ",
"          o@##$$$$$$@o        ",
"          o##$$$$$$$$o        ",
"          o##$$%.$$.$@o       ",
"         o@#$$$..$$.$#o       ",
"         o@#$++$$$$$+#o       ",
"         o@#$$++++++$#o       ",
"        Xo@@#$$OO++$#@oX      ",
"        XXo@@#######@@oX      ",
"        XXXX@@@@@@@@@oXX      ",
"         XXXXXXXXXXXXXX       ",
"                              ",
"                              ",
"                              ",
"                              ",
"                              ",
"                              "
};
