/* XPM */
static char * 04_xpm[] = {
"64 64 7 1",
" 	c #509B66",
".	c #000000",
"+	c #303030",
"@	c #987038",
"#	c #F8D050",
"$	c #C8A040",
"%	c #705038",
"                                                                ",
"                                                                ",
"                                                                ",
"                                                                ",
"                                                                ",
"                                                                ",
"                                                                ",
"                                                                ",
"                                                                ",
"                                                                ",
"                                                                ",
"                                                                ",
"                                                                ",
"                                                                ",
"                                                                ",
"                                                                ",
"                                                                ",
"                                                                ",
"                                                                ",
"                                                                ",
"                                                                ",
"                                                                ",
"                                                                ",
"                                                                ",
"                                                                ",
"                                                                ",
"                                                                ",
"                                                                ",
"                                                                ",
"                                                                ",
"                  ......                ......                  ",
"                  ......                ......                  ",
"                  ..++++..  @@@@@@@@  ..++++..                  ",
"                  ..++++..  @@@@@@@@  ..++++..                  ",
"                  ..++++##..########..##++++..                  ",
"                  ..++++##..########..##++++..                  ",
"                    ..######@@####@@######..                    ",
"                    ..######@@####@@######..                    ",
"                    ..$$################$$..                    ",
"                    ..$$################$$..                    ",
"                    @@..$$############$$..@@                    ",
"                    @@..$$############$$..@@                    ",
"                    @@################..........                ",
"                    @@################..........                ",
"                    ..##############..########..                ",
"                    ..##############..########..                ",
"                      %%############..$$$$$$$$..                ",
"                      %%############..$$$$$$$$..                ",
"                      %%##@@@@##@@..%%$$$$$$$$..                ",
"                      %%##@@@@##@@..%%$$$$$$$$..                ",
"                    %%$$$$##@@@@..$$$$$$......                  ",
"                    %%$$$$##@@@@..$$$$$$......                  ",
"                    %%$$$$@@@@$$..$$....%%                      ",
"                    %%$$$$@@@@$$..$$....%%                      ",
"                    ..$$$$$$%%..@@@@..@@..                      ",
"                    ..$$$$$$%%..@@@@..@@..                      ",
"                      ..$$$$$$..@@..@@@@..                      ",
"                      ..$$$$$$..@@..@@@@..                      ",
"                        ....++++++$$$$..                        ",
"                        ....++++++$$$$..                        ",
"                                  ....                          ",
"                                  ....                          ",
"                                                                ",
"                                                                "};
