/* XPM */
static char * Tree_xpm[] = {
"64 64 375 2",
"  	c #509B66",
". 	c #213830",
"+ 	c #20372F",
"@ 	c #20372E",
"# 	c #20352F",
"$ 	c #1F342E",
"% 	c #213931",
"& 	c #27493F",
"* 	c #305F4B",
"= 	c #326747",
"- 	c #326945",
"; 	c #2B5046",
"> 	c #2F5F48",
", 	c #306143",
"' 	c #2F6242",
") 	c #306342",
"! 	c #326848",
"~ 	c #37724E",
"{ 	c #3C7C4E",
"] 	c #3E7F4E",
"^ 	c #2D5747",
"/ 	c #2F5E45",
"( 	c #32664A",
"_ 	c #37714F",
": 	c #39784E",
"< 	c #3B7B4D",
"[ 	c #3B7C4D",
"} 	c #3C7D4E",
"| 	c #42834D",
"1 	c #4C904A",
"2 	c #509449",
"3 	c #509548",
"4 	c #2F6042",
"5 	c #2F5F46",
"6 	c #356B4D",
"7 	c #38744E",
"8 	c #3A794E",
"9 	c #3B7C4F",
"0 	c #41834D",
"a 	c #488C4B",
"b 	c #4D914A",
"c 	c #4D924A",
"d 	c #529748",
"e 	c #5CA243",
"f 	c #5FA641",
"g 	c #5FA741",
"h 	c #254334",
"i 	c #2D5C3E",
"j 	c #377149",
"k 	c #39784C",
"l 	c #38774D",
"m 	c #3A7A4F",
"n 	c #3D7E4F",
"o 	c #44864D",
"p 	c #488B4B",
"q 	c #4F9348",
"r 	c #599F44",
"s 	c #5FA541",
"t 	c #5EA641",
"u 	c #62AA3F",
"v 	c #63AB3F",
"w 	c #244534",
"x 	c #367048",
"y 	c #3A7A4D",
"z 	c #3B7D4F",
"A 	c #3E804E",
"B 	c #46894B",
"C 	c #549847",
"D 	c #5BA243",
"E 	c #5EA642",
"F 	c #61A940",
"G 	c #254634",
"H 	c #2F6040",
"I 	c #36734A",
"J 	c #3A7B4E",
"K 	c #488B4C",
"L 	c #569B46",
"M 	c #274C36",
"N 	c #306241",
"O 	c #37734A",
"P 	c #3B7B4E",
"Q 	c #3D7F4F",
"R 	c #579C45",
"S 	c #284E39",
"T 	c #316543",
"U 	c #38744B",
"V 	c #3B7C4E",
"W 	c #4E9249",
"X 	c #5EA542",
"Y 	c #24403C",
"Z 	c #2F5F45",
"` 	c #38744C",
" .	c #63AA3F",
"..	c #243E3C",
"+.	c #2D5647",
"@.	c #356D4E",
"#.	c #498C4B",
"$.	c #589E45",
"%.	c #61A841",
"&.	c #213735",
"*.	c #2D5746",
"=.	c #356C4D",
"-.	c #3A784F",
";.	c #3C7E4F",
">.	c #40824E",
",.	c #4A8D4B",
"'.	c #579D45",
").	c #60A741",
"!.	c #26473A",
"~.	c #336A49",
"{.	c #39784F",
"].	c #3F814E",
"^.	c #5DA443",
"/.	c #62AA40",
"(.	c #25413D",
"_.	c #2E5A47",
":.	c #37734D",
"<.	c #45884C",
"[.	c #4B8E4A",
"}.	c #529648",
"|.	c #5BA143",
"1.	c #60A841",
"2.	c #284944",
"3.	c #2E5949",
"4.	c #366E4E",
"5.	c #3A7950",
"6.	c #42854D",
"7.	c #519448",
"8.	c #559946",
"9.	c #5EA442",
"0.	c #62A940",
"a.	c #2C514A",
"b.	c #33674F",
"c.	c #3D7F4E",
"d.	c #4F9349",
"e.	c #559947",
"f.	c #264541",
"g.	c #2E5A49",
"h.	c #366F50",
"i.	c #40824D",
"j.	c #2E574C",
"k.	c #346A4F",
"l.	c #243E3B",
"m.	c #2F5B4A",
"n.	c #387150",
"o.	c #27493B",
"p.	c #326648",
"q.	c #3A7850",
"r.	c #23383A",
"s.	c #2D5846",
"t.	c #36704C",
"u.	c #1B1E2A",
"v.	c #253E3F",
"w.	c #305D4C",
"x.	c #377450",
"y.	c #1B212C",
"z.	c #254040",
"A.	c #305F4D",
"B.	c #387451",
"C.	c #223639",
"D.	c #2A4E45",
"E.	c #33664E",
"F.	c #397750",
"G.	c #2B4F4A",
"H.	c #32644E",
"I.	c #38744F",
"J.	c #1D2A31",
"K.	c #2A4C48",
"L.	c #34684F",
"M.	c #3B7E4F",
"N.	c #1C262F",
"O.	c #284945",
"P.	c #34674F",
"Q.	c #1C252F",
"R.	c #294945",
"S.	c #1D2830",
"T.	c #294A47",
"U.	c #2C504A",
"V.	c #34664F",
"W.	c #397650",
"X.	c #25403F",
"Y.	c #2D5547",
"Z.	c #356A4E",
"`.	c #397850",
" +	c #1C252E",
".+	c #264240",
"++	c #315F4D",
"@+	c #1A1E29",
"#+	c #253D3F",
"$+	c #2E594D",
"%+	c #356C51",
"&+	c #3A7C4F",
"*+	c #233A3C",
"=+	c #2B4D49",
"-+	c #305E50",
";+	c #387550",
">+	c #387450",
",+	c #1E2930",
"'+	c #243C3E",
")+	c #2B4F4B",
"!+	c #315E52",
"~+	c #346952",
"{+	c #3A7B4F",
"]+	c #346A52",
"^+	c #326253",
"/+	c #326053",
"(+	c #223539",
"_+	c #2A4B4A",
":+	c #2F5852",
"<+	c #305C53",
"[+	c #326252",
"}+	c #346652",
"|+	c #377150",
"1+	c #366E51",
"2+	c #336452",
"3+	c #336352",
"4+	c #2F5953",
"5+	c #2F5853",
"6+	c #213538",
"7+	c #294B48",
"8+	c #2E5552",
"9+	c #2F5753",
"0+	c #305A53",
"a+	c #346752",
"b+	c #366D51",
"c+	c #3B7B4F",
"d+	c #387350",
"e+	c #356B51",
"f+	c #336552",
"g+	c #315F52",
"h+	c #1F2F34",
"i+	c #254041",
"j+	c #2B4D4C",
"k+	c #2F5552",
"l+	c #305853",
"m+	c #346751",
"n+	c #366C51",
"o+	c #377350",
"p+	c #377050",
"q+	c #326452",
"r+	c #1F3035",
"s+	c #284545",
"t+	c #2E5451",
"u+	c #2F5653",
"v+	c #305953",
"w+	c #305C52",
"x+	c #366F51",
"y+	c #356A51",
"z+	c #316052",
"A+	c #305B52",
"B+	c #1E2931",
"C+	c #253E40",
"D+	c #2B4E4C",
"E+	c #2E5551",
"F+	c #315C52",
"G+	c #315D52",
"H+	c #305B53",
"I+	c #264141",
"J+	c #2D5350",
"K+	c #203136",
"L+	c #254141",
"M+	c #2B4F4C",
"N+	c #253F40",
"O+	c #2B4D4B",
"P+	c #243E3F",
"Q+	c #2A4C4A",
"R+	c #2D5451",
"S+	c #2E5652",
"T+	c #233C3E",
"U+	c #274645",
"V+	c #2A4B49",
"W+	c #2C524E",
"X+	c #2F5652",
"Y+	c #1E2B32",
"Z+	c #213437",
"`+	c #264343",
" @	c #1F2E34",
".@	c #203337",
"+@	c #243E40",
"@@	c #2D514E",
"#@	c #2C4F4D",
"$@	c #2C4F4C",
"%@	c #2C504D",
"&@	c #22393B",
"*@	c #22383B",
"=@	c #243C3F",
"-@	c #2A4C4B",
";@	c #2C534F",
">@	c #2B524E",
",@	c #2C524F",
"'@	c #2C5350",
")@	c #274343",
"!@	c #2B3E41",
"~@	c #303D3F",
"{@	c #2E3D3F",
"]@	c #2A3D3F",
"^@	c #2B4343",
"/@	c #30504D",
"(@	c #2D5450",
"_@	c #402B35",
":@	c #52323B",
"<@	c #5C353F",
"[@	c #54323D",
"}@	c #432D38",
"|@	c #3F333C",
"1@	c #3F4145",
"2@	c #374446",
"3@	c #2E4243",
"4@	c #294142",
"5@	c #59313C",
"6@	c #713F45",
"7@	c #82494D",
"8@	c #854951",
"9@	c #79424D",
"0@	c #633944",
"a@	c #54343F",
"b@	c #523640",
"c@	c #583740",
"d@	c #50323C",
"e@	c #412D37",
"f@	c #3C2330",
"g@	c #683A43",
"h@	c #8E4F53",
"i@	c #9D5759",
"j@	c #945257",
"k@	c #834751",
"l@	c #6F3F49",
"m@	c #5A3641",
"n@	c #5E3842",
"o@	c #7E474D",
"p@	c #80474E",
"q@	c #6F3F48",
"r@	c #2F1E2C",
"s@	c #52303C",
"t@	c #75424B",
"u@	c #874B53",
"v@	c #844951",
"w@	c #703E49",
"x@	c #583440",
"y@	c #50313D",
"z@	c #623A43",
"A@	c #905153",
"B@	c #975357",
"C@	c #291C2B",
"D@	c #422936",
"E@	c #55333F",
"F@	c #603843",
"G@	c #5F3642",
"H@	c #4E2E3A",
"I@	c #382431",
"J@	c #3D2633",
"K@	c #58343E",
"L@	c #864A50",
"M@	c #A35A5B",
"N@	c #AF615F",
"O@	c #33212F",
"P@	c #3A2432",
"Q@	c #392431",
"R@	c #31212E",
"S@	c #2E1E2C",
"T@	c #492A37",
"U@	c #77424B",
"V@	c #9E5759",
"W@	c #B36460",
"X@	c #37212E",
"Y@	c #623741",
"Z@	c #894C51",
"`@	c #9F585A",
" #	c #452935",
".#	c #653943",
"+#	c #78434C",
"@#	c #402734",
"##	c #4C2D3A",
"$#	c #261A2A",
"%#	c #271B2A",
"                                                        . + @ @ @ @ + .                                                         ",
"                                              # $ % & * = - - - - - - = * & % $ #                                               ",
"                                          ; > , ' ) ! ~ { ] ] ] ] ] ] { ~ ! ) ' , > ;                                           ",
"                                      ^ / ( _ : < [ } | 1 2 3 3 3 3 2 1 | } [ < : _ ( / ^                                       ",
"                                  4 5 6 7 8 9 0 a b c d e f g g g g f e d c b a 0 9 8 7 6 5 4                                   ",
"                            h i j k l m n o p q r s t g u v v v v v v u g t s r q p o n m l k j i h                             ",
"                          w i x y z z A B C D E F v v v v v v v v v v v v v v F E D C B A z z y x i w                           ",
"                        G H I J z z A K L f u v v v v v v v v v v v v v v v v v v u f L K A z z J I H G                         ",
"                      M N O P z z Q p R g v v v v v v v v v v v v v v v v v v v v v v g R p Q z z P O N M                       ",
"                    S T U V z z z A W X v v v v v v v v v v v v v v v v v v v v v v v v X W A z z z V U T S                     ",
"                  Y Z ` 9 z z z z A W X  .v v v v v v v v v v v v v v v v v v v v v v  .X W A z z z z 9 ` Z Y                   ",
"                ..+.@.m z z z z z A #.$.%.v v v v v v v v v v v v v v v v v v v v v v %.$.#.A z z z z z m @.+...                ",
"              &.*.=.-.9 z z z z z ;.>.,.'.). .v v v v v v v v v v v v v v v v v v  .).'.,.>.;.z z z z z 9 -.=.*.&.              ",
"              !.~.{.z z z z z z z z z ].p L ^.)./.v v v v v v v v v v v v v v /.).^.L p ].z z z z z z z z z {.~.!.              ",
"            (._.:.9 z z z z z z z z z z A <.[.}.|.).1.%.u v v v v v v u %.1.).|.}.[.<.A z z z z z z z z z z 9 :._.(.            ",
"          2.3.4.5.z z z z z z z z z z z z ;.Q 6.[.q 7.8.9.F 0.0.0.0.F 9.8.7.q [.6.Q ;.z z z z z z z z z z z z 5.4.3.2.          ",
"          a.b.{.z z z z z z z z z z z z z z z z c.A A o d.C e.e.e.e.C d.o A A c.z z z z z z z z z z z z z z z z {.b.a.          ",
"        f.g.h.m z z z z z z z z z z z z z z z z z z z ;.].i.i.i.i.i.i.].;.z z z z z z z z z z z z z z z z z z z m h.g.f.        ",
"        j.k.{.9 z z z z z z z z z z z z z z z z z z z z z z z z z z z z z z z z z z z z z z z z z z z z z z z z 9 {.k.j.        ",
"      l.m.n.9 z z z z z z z z z z z z z z z z z z z z z z z z z z z z z z z z z z z z z z z z z z z z z z z z z z 9 n.m.l.      ",
"      o.p.q.z z z z z z z z z z z z z z z z z z z z z z z z z z z z z z z z z z z z z z z z z z z z z z z z z z z z q.p.o.      ",
"    r.s.t.9 z z z z z z z z z z z z z z z z z z z z z z z z z z z z z z z z z z z z z z z z z z z z z z z z z z z z 9 t.s.r.    ",
"  u.v.w.x.z z z z z z z z z z z z z z z z z z z z z z z z z z z z z z z z z z z z z z z z z z z z z z z z z z z z z z x.w.v.u.  ",
"  y.z.A.B.9 z z z z z z z z z z z z z z z z z z z z z z z z z z z z z z z z z z z z z z z z z z z z z z z z z z z z 9 B.A.z.y.  ",
"  C.D.E.F.z z z z z z z z z z z z z z z z z z z z z z z z z z z z z z z z z z z z z z z z z z z z z z z z z z z z z z F.E.D.C.  ",
"  G.H.I.9 z z z z z z z z z z z z z z z z z z z z z z z z z z z z z z z z z z z z z z z z z z z z z z z z z z z z z z 9 I.H.G.  ",
"J.K.L.q.M.z z z z z z z z z z z z z z z z z z z z z z z z z z z z z z z z z z z z z z z z z z z z z z z z z z z z z z M.q.L.K.J.",
"N.O.P.q.M.z z z z z z z z z z z z z z z z z z z z z z z z z z z z z z z z z z z z z z z z z z z z z z z z z z z z z z M.q.P.O.N.",
"Q.R.P.q.M.z z z z z z z z z z z z z z z z z z z z z z z z z z z z z z z z z z z z z z z z z z z z z z z z z z z z z z M.q.P.R.Q.",
"Q.R.P.q.M.z z z z z z z z z z z z z z z z z z z z z z z z z z z z z z z z z z z z z z z z z z z z z z z z z z z z z z M.q.P.R.Q.",
"Q.O.P.q.M.z z z z z z z z z z z z z z z z z z z z z z z z z z z z z z z z z z z z z z z z z z z z z z z z z z z z z z M.q.P.O.Q.",
"Q.O.P.q.M.z z z z z z z z z z z z z z z z z z z z z z z z z z z z z z z z z z z z z z z z z z z z z z z z z z z z z z M.q.P.O.Q.",
"S.T.L.q.M.z z z z z z z z z z z z z z z z z z z z z z z z z z z z z z z z z z z z z z z z z z z z z z z z z z z z z z M.q.L.T.S.",
"  U.V.W.z z z z z z z z z z z z z z z z z z z z z z z z z z z z z z z z z z z z z z z z z z z z z z z z z z z z z z z z W.V.U.  ",
"  X.Y.Z.`.z z z z z z z z z z z z z z z z z z z z z z z z z z z z z z z z z z z z z z z z z z z z z z z z z z z z z z `.Z.Y.X.  ",
"   +.+++B.z z z z z z z z z z z z z z z z z z z z z z z z z z z z z z z z z z z z z z z z z z z z z z z z z z z z z z B.++.+ +  ",
"  @+#+$+%+F.9 z z z z z z z z z z z z z z z z z z z z z z z 9 &+&+9 z z z z z z z z z z z z z z z z z z z z z z z 9 F.%+$+#+@+  ",
"    *+=+-+%+F.9 z z z z z z z z z z z z z z z z z z z z 9 q.;+>+>+;+q.9 z z z z z z z z z z z z z z z z z z z z 9 F.%+-+=+*+    ",
"    ,+'+)+!+~+;+`.{+z z z z z z z z z z z z z z 9 m `.F.;+]+^+/+/+^+]+;+F.`.m 9 z z z z z z z z z z z z z z {+`.;+~+!+)+'+,+    ",
"      (+_+:+<+[+}+|+-.{+9 z z z z z z z z z 9 m W.1+2+3+[+<+4+5+5+4+<+[+3+2+1+W.m 9 z z z z z z z z z 9 {+-.|+}+[+<+:+_+(+      ",
"      6+7+8+9+5+0+[+a+b+W.m c+z z z z z c+m d+e+f+g+4+5+5+9+9+9+9+9+9+5+5+4+g+f+e+d+m c+z z z z z c+m W.b+a+[+0+5+9+8+7+6+      ",
"      h+i+j+k+9+9+l+l+!+m+n+o+m &+&+{+{.p+e+q+<+l+5+9+9+9+9+9+9+9+9+9+9+9+9+5+l+<+q+e+p+{.{+&+&+m o+n+m+!+l+l+9+9+k+j+i+h+      ",
"        r+s+t+9+9+9+u+5+v+w+2+b+x+x+x+y+z+A+v+9+9+9+9+9+9+9+9+9+9+9+9+9+9+9+9+9+9+v+A+z+y+x+x+x+b+2+w+v+5+u+9+9+9+t+s+r+        ",
"        B+C+D+E+9+9+9+9+u+9+v+<+F+G+F+H+5+u+9+9+9+9+9+9+9+9+9+9+9+9+9+9+9+9+9+9+9+9+u+5+H+F+G+F+<+v+9+u+9+9+9+9+E+D+C+B+        ",
"          r+I+J+9+9+9+9+9+9+9+u+u+u+u+9+9+9+9+9+9+9+9+9+9+9+9+9+9+9+9+9+9+9+9+9+9+9+9+9+9+u+u+u+u+9+9+9+9+9+9+9+J+I+r+          ",
"            *+D+8+9+9+9+9+9+9+9+9+9+9+9+9+9+9+9+9+9+9+9+9+9+9+9+9+9+9+9+9+9+9+9+9+9+9+9+9+9+9+9+9+9+9+9+9+9+9+8+D+*+            ",
"            K+L+M+E+9+9+9+9+9+9+9+9+9+9+9+9+9+9+9+9+9+9+9+9+9+9+9+9+9+9+9+9+9+9+9+9+9+9+9+9+9+9+9+9+9+9+9+9+E+M+L+K+            ",
"              h+N+O+E+9+9+9+9+9+9+9+9+9+9+9+9+9+9+9+9+9+9+9+9+9+9+9+9+9+9+9+9+9+9+9+9+9+9+9+9+9+9+9+9+9+9+E+O+N+h+              ",
"                  P+Q+R+S+9+9+9+9+9+9+9+9+9+9+9+9+9+9+9+9+9+9+9+9+9+9+9+9+9+9+9+9+9+9+9+9+9+9+9+9+9+9+S+R+Q+P+                  ",
"                    T+U+V+W+S+X+9+9+9+9+9+9+9+9+9+9+9+9+9+9+9+9+9+9+9+9+9+9+9+9+9+9+9+9+9+9+9+9+X+S+W+V+U+T+                    ",
"                      Y+Z+`+V+M+R+9+9+9+9+9+9+9+9+9+9+9+9+9+9+9+9+9+9+9+9+9+9+9+9+9+9+9+9+9+9+R+M+V+`+Z+Y+                      ",
"                           @.@+@D+@@#@$@%@t+9+9+5+5+5+9+9+9+9+9+9+9+9+9+9+5+5+5+9+9+t+%@$@#@@@D++@.@ @                          ",
"                                  N+&@*@=@-@J+;@>@>@,@'@S+5+5+5+5+5+5+S+'@,@>@>@;@J+-@=@*@&@N+                                  ",
"                                            )@!@~@{@]@^@/@t+(@(@(@(@t+/@^@]@{@~@!@)@                                            ",
"                                            _@:@<@[@}@|@1@2@3@4@4@3@2@1@|@}@[@<@:@_@                                            ",
"                                          5@6@7@8@9@0@a@b@c@d@e@e@d@c@b@a@0@9@8@7@6@5@                                          ",
"                                        f@g@h@i@j@k@l@m@n@o@p@q@q@p@o@n@m@l@k@j@i@h@g@f@                                        ",
"                                        r@s@t@u@v@w@x@y@z@A@i@B@B@i@A@z@y@x@w@v@u@t@s@r@                                        ",
"                                        C@D@E@F@G@H@I@J@K@L@M@N@N@M@L@K@J@I@H@G@F@E@D@C@                                        ",
"                                          O@I@P@Q@R@  S@T@U@V@W@W@V@U@T@S@  R@Q@P@I@O@                                          ",
"                                                        X@Y@Z@`@`@Z@Y@X@                                                        ",
"                                                           #.#+#+#.# #                                                          ",
"                                                            @#####@#                                                            ",
"                                                            $#%#%#$#                                                            "};
