/* XPM */
static char * Untitled_xpm[] = {
"64 64 234 2",
"  	c #509B66",
". 	c #262626",
"+ 	c #000000",
"@ 	c #3D2626",
"# 	c #2E0000",
"$ 	c #383838",
"% 	c #353535",
"& 	c #502E2E",
"* 	c #A30000",
"= 	c #A40000",
"- 	c #0E0D0D",
"; 	c #010000",
"> 	c #440000",
", 	c #A70101",
"' 	c #A80101",
") 	c #A80000",
"! 	c #A70000",
"~ 	c #430000",
"{ 	c #6F0D0D",
"] 	c #6F0101",
"^ 	c #841414",
"/ 	c #891818",
"( 	c #9B3129",
"_ 	c #D2624D",
": 	c #D3634E",
"< 	c #C53C31",
"[ 	c #BC1818",
"} 	c #B51010",
"| 	c #7B0000",
"1 	c #6E0000",
"2 	c #6A0000",
"3 	c #540000",
"4 	c #550D0D",
"5 	c #A90202",
"6 	c #CA2323",
"7 	c #D02828",
"8 	c #DB4E42",
"9 	c #F89777",
"0 	c #F89878",
"a 	c #E05E4D",
"b 	c #C21D1D",
"c 	c #A20000",
"d 	c #810000",
"e 	c #800000",
"f 	c #AB0404",
"g 	c #CB2927",
"h 	c #D12F2C",
"i 	c #DC5346",
"j 	c #F89B7D",
"k 	c #F89C7E",
"l 	c #E16352",
"m 	c #D12E2C",
"n 	c #AA0202",
"o 	c #830000",
"p 	c #EB7B62",
"q 	c #F2896C",
"r 	c #F3A592",
"s 	c #F8E9E4",
"t 	c #F8E9E5",
"u 	c #F4B2A3",
"v 	c #EF8268",
"w 	c #D33330",
"x 	c #CE2626",
"y 	c #B10B0B",
"z 	c #F2896D",
"A 	c #F8B49F",
"B 	c #F8F7F7",
"C 	c #F8F8F8",
"D 	c #F8C1B1",
"E 	c #F59173",
"F 	c #D33631",
"G 	c #B30D0D",
"H 	c #941818",
"I 	c #D12D2B",
"J 	c #E9745D",
"K 	c #EE8067",
"L 	c #F19D8A",
"M 	c #F8E1DA",
"N 	c #F8E2DB",
"O 	c #F2AA9B",
"P 	c #EB7A62",
"Q 	c #D3322F",
"R 	c #760000",
"S 	c #320000",
"T 	c #442E2E",
"U 	c #D02B29",
"V 	c #D02B2A",
"W 	c #DB5044",
"X 	c #F8997A",
"Y 	c #E0604F",
"Z 	c #940000",
"` 	c #7F0000",
" .	c #7C0000",
"..	c #352626",
"+.	c #F79777",
"@.	c #CF2828",
"#.	c #950000",
"$.	c #7D0000",
"%.	c #220000",
"&.	c #360505",
"*.	c #BD1C1C",
"=.	c #C92222",
"-.	c #D43832",
";.	c #9F382F",
">.	c #721313",
",.	c #8D1313",
"'.	c #B81313",
").	c #AC0404",
"!.	c #3A0707",
"~.	c #CB2727",
"{.	c #5C0000",
"].	c #360707",
"^.	c #BE2424",
"/.	c #C32525",
"(.	c #C92626",
"_.	c #CC2727",
":.	c #C22525",
"<.	c #732C2C",
"[.	c #333333",
"}.	c #1E1E1E",
"|.	c #1C1C1C",
"1.	c #591212",
"2.	c #9D0000",
"3.	c #A50000",
"4.	c #8F0000",
"5.	c #780000",
"6.	c #750000",
"7.	c #1F0000",
"8.	c #060101",
"9.	c #2A0404",
"0.	c #2B0404",
"a.	c #8D1919",
"b.	c #AB2020",
"c.	c #300505",
"d.	c #2D0B0B",
"e.	c #AFADAD",
"f.	c #E8E8E8",
"g.	c #E1E1E1",
"h.	c #909090",
"i.	c #868686",
"j.	c #666464",
"k.	c #220303",
"l.	c #260000",
"m.	c #8A0000",
"n.	c #850000",
"o.	c #590000",
"p.	c #180000",
"q.	c #170000",
"r.	c #030000",
"s.	c #A82020",
"t.	c #120101",
"u.	c #080808",
"v.	c #B9B9B9",
"w.	c #F0F0F0",
"x.	c #9A9A9A",
"y.	c #6B6B6B",
"z.	c #030303",
"A.	c #0C0000",
"B.	c #880000",
"C.	c #530000",
"D.	c #242424",
"E.	c #898989",
"F.	c #875D5D",
"G.	c #9B1D1D",
"H.	c #7D1616",
"I.	c #0B0101",
"J.	c #060606",
"K.	c #9F9F9F",
"L.	c #D5D5D5",
"M.	c #D0D0D0",
"N.	c #969696",
"O.	c #070000",
"P.	c #650000",
"Q.	c #600000",
"R.	c #5F0000",
"S.	c #513232",
"T.	c #4E4E4E",
"U.	c #4C4C4C",
"V.	c #111111",
"W.	c #464646",
"X.	c #F2F2F2",
"Y.	c #F7F7F7",
"Z.	c #A6A6A6",
"`.	c #070202",
" +	c #060000",
".+	c #040000",
"++	c #020000",
"@+	c #030101",
"#+	c #606060",
"$+	c #8D8D8D",
"%+	c #272727",
"&+	c #515151",
"*+	c #F1F1F1",
"=+	c #F6F6F6",
"-+	c #181818",
";+	c #171717",
">+	c #191919",
",+	c #8F8F8F",
"'+	c #6A6A6A",
")+	c #0C0C0C",
"!+	c #090909",
"~+	c #0A0A0A",
"{+	c #8C8C8C",
"]+	c #6C6C6C",
"^+	c #656565",
"/+	c #959595",
"(+	c #C9C9C9",
"_+	c #C8C8C8",
":+	c #787878",
"<+	c #393939",
"[+	c #747474",
"}+	c #555555",
"|+	c #494949",
"1+	c #010101",
"2+	c #A4A4A4",
"3+	c #5E5E5E",
"4+	c #999999",
"5+	c #E9E9E9",
"6+	c #F5F5F5",
"7+	c #474747",
"8+	c #2C2C2C",
"9+	c #282828",
"0+	c #585858",
"a+	c #616161",
"b+	c #949494",
"c+	c #F3F3F3",
"d+	c #EBEBEB",
"e+	c #979797",
"f+	c #8E8E8E",
"g+	c #0E0E0E",
"h+	c #5F5F5F",
"i+	c #ABABAB",
"j+	c #C4C4C4",
"k+	c #696969",
"                                                                                                                                ",
"                                                                                                                                ",
"                                                                                                                                ",
"                                                                                                                                ",
"                                                                                                                                ",
"                                                                                                                                ",
"                                                                                                                                ",
"                                                                                                                                ",
"                                                                                                                                ",
"                                                                                                                                ",
"                                                                                                                                ",
"                                                                                                                                ",
"                                                                                                                                ",
"                                                                                                                                ",
"                                                                                                                                ",
"                                                                                                                                ",
"                                                                                                                                ",
"                                                      . + + + + + + + + .                                                       ",
"                                                      @ # # # # # # # # @                                                       ",
"                                            $ % % % & * = = = = = = = = * & % % % $                                             ",
"                                            - ; ; ; > , ' ) ) ) ) ) ) ) ! ~ ; ; ; -                                             ",
"                                            { ] ^ / ( _ : < [ [ [ [ } ) ! | 1 2 3 4                                             ",
"                                      $ - { ) 5 6 7 8 9 0 a 7 7 7 7 b ) ) ) ) c d e 4 - $                                       ",
"                                      % ; ] 5 f g h i j k l h m 7 7 b n 5 ) ) c o d 3 ; %                                       ",
"                                      % ; ^ 6 g p q r s t u q v w 7 x 6 6 y ) ! c c 2 ; %                                       ",
"                                      % ; / 7 h z 0 A B C D 0 E F 7 7 7 7 G ) ) ) ) 1 ; %                                       ",
"                                      & ~ H 7 I J K L M N O K P Q 7 7 7 7 G ) ) ) ) R S T                                       ",
"                                  . @ * ! [ 7 7 U V W X X Y V V 7 7 7 7 7 G ) ) ) ) Z `  ....                                   ",
"                                  + # = ' [ 7 7 7 7 8 +.0 a 7 7 7 7 7 7 @.G ) ) ) ) #.e $.%.+                                   ",
"                                  + &.*.b =.7 7 7 7 -.a a ;.>.>.>.>.,.'.'.).) ) ) ) #.e $.%.+                                   ",
"                                  + !.~.7 7 7 7 7 7 7 7 7 >.+ + + + {.) ) ) ) ) ) ) #.e $.%.+                                   ",
"                                  + ].^./.(.7 7 7 7 _./.:.<.% [.}.|.1.2.2.3.) ! 3.3.4.5.6.7.+                                   ",
"                                  + 8.9.0.a.7 7 7 7 b.c.d.e.f.g.h.i.j.k.l.m.) c n.o o.p.q.r.+                                   ",
"                                  + + + ; / 7 7 7 7 s.t.u.v.C w.x.h.y.z.A.B.) c d e C.; + + +                                   ",
"                                  + D.i.E.F.G.G.G.G.H.I.J.K.L.M.N.h.y.z.O.P.$.5.Q.R.S.T.U.V.+                                   ",
"                                  + W.X.Y.Z.`. + + +.++ z.y.h.h.h.h.y.z.+ ++.+r.++@+#+h.$+%++                                   ",
"                                  . &+*+=+Z.-+;+;+;+;+;+>+y.,+,+,+,+'+)+!+!+!+!+!+~+#+,+{+$ .                                   ",
"                                      ]+^+/+(+(+(+(+(+(+_+:+<+<+<+<+T.[+[+[+[+[+[+[+}+<+|+                                      ",
"                                      % 1+2+C C C C C C C E.+ + + + T.h.h.h.h.h.h.h.3+1+%                                       ",
"                                      % 1+4+f.5+6+C C C C 4+|+7+8+9+0+h.h.h.h.h.h.h.3+1+%                                       ",
"                                      % 1+a+b+4+5+C C C C 6+c+d+e+$+f+h.h.h.h.h.h.h.3+1+%                                       ",
"                                      $ g+h+h.b+f.C C C C C C w.x.h.h.h.h.h.h.h.h.h.h+g+$                                       ",
"                                            h+a+4+2+i+_+(+(+(+j+/+h.h.h.,+k+3+3+3+h+                                            ",
"                                            g+1+1+1+<+,+h.h.h.h.h.h.h.h.,+<+1+1+1+g+                                            ",
"                                            $ % % % |+{+{+{+{+{+{+{+{+{+{+|+% % % $                                             ",
"                                                      $ %+%+%+%+%+%+%+%+$                                                       ",
"                                                      . + + + + + + + + .                                                       ",
"                                                                                                                                ",
"                                                                                                                                ",
"                                                                                                                                ",
"                                                                                                                                ",
"                                                                                                                                ",
"                                                                                                                                ",
"                                                                                                                                ",
"                                                                                                                                ",
"                                                                                                                                ",
"                                                                                                                                ",
"                                                                                                                                ",
"                                                                                                                                ",
"                                                                                                                                ",
"                                                                                                                                ",
"                                                                                                                                ",
"                                                                                                                                ",
"                                                                                                                                "};
