/* XPM */
static char * 11_xpm[] = {
"64 64 420 2",
"  	c #509B66",
". 	c #509B66",
"+ 	c #509C67",
"@ 	c #4F9664",
"# 	c #4F9965",
"$ 	c #4D9362",
"% 	c #3E5C45",
"& 	c #3B6948",
"* 	c #509C66",
"= 	c #509A65",
"- 	c #3D5C45",
"; 	c #221E23",
"> 	c #270107",
", 	c #516441",
"' 	c #4E9763",
") 	c #366343",
"! 	c #3F6F4B",
"~ 	c #509260",
"{ 	c #405B44",
"] 	c #1F1D23",
"^ 	c #2D0202",
"/ 	c #520101",
"( 	c #720002",
"_ 	c #201D23",
": 	c #3E5B44",
"< 	c #4E9260",
"[ 	c #3E6F4B",
"} 	c #2E5F3D",
"| 	c #0F0000",
"1 	c #4F1D1D",
"2 	c #7A3D2D",
"3 	c #47171D",
"4 	c #380202",
"5 	c #670000",
"6 	c #880000",
"7 	c #850000",
"8 	c #350202",
"9 	c #39171D",
"0 	c #603D2D",
"a 	c #3F1D1D",
"b 	c #0B0000",
"c 	c #0A0000",
"d 	c #490000",
"e 	c #920102",
"f 	c #A70000",
"g 	c #890101",
"h 	c #760000",
"i 	c #950000",
"j 	c #A60000",
"k 	c #9B0000",
"l 	c #710000",
"m 	c #6D0101",
"n 	c #7E0000",
"o 	c #6F0102",
"p 	c #360000",
"q 	c #050000",
"r 	c #2F5F3D",
"s 	c #920000",
"t 	c #A80000",
"u 	c #A10000",
"v 	c #9D0000",
"w 	c #840000",
"x 	c #7F0000",
"y 	c #6F0000",
"z 	c #040000",
"A 	c #AB0404",
"B 	c #B00A0A",
"C 	c #A90202",
"D 	c #AE0707",
"E 	c #AA0202",
"F 	c #930000",
"G 	c #690000",
"H 	c #230000",
"I 	c #000000",
"J 	c #AC0606",
"K 	c #BA1616",
"L 	c #C21D1D",
"M 	c #AF0909",
"N 	c #C11D1D",
"O 	c #B20C0C",
"P 	c #570000",
"Q 	c #120000",
"R 	c #030202",
"S 	c #C92323",
"T 	c #D02828",
"U 	c #C82222",
"V 	c #C82121",
"W 	c #CD2626",
"X 	c #C41F1F",
"Y 	c #9E0000",
"Z 	c #750000",
"` 	c #2D0000",
" .	c #090B0B",
"..	c #323232",
"+.	c #2C2C2C",
"@.	c #0D000A",
"#.	c #920202",
"$.	c #AD120E",
"%.	c #BA1918",
"&.	c #D02929",
"*.	c #CF2727",
"=.	c #B10B0B",
"-.	c #A90101",
";.	c #960000",
">.	c #500606",
",.	c #403737",
"'.	c #6A6A6A",
").	c #7B7B7B",
"!.	c #464646",
"~.	c #3E6F4C",
"{.	c #B12B20",
"].	c #C7483A",
"^.	c #D14339",
"/.	c #D12C2A",
"(.	c #D43B34",
"_.	c #DD5849",
":.	c #D33430",
"<.	c #D02A29",
"[.	c #CE2727",
"}.	c #B91515",
"|.	c #641414",
"1.	c #594B4B",
"2.	c #858585",
"3.	c #909090",
"4.	c #6B746D",
"5.	c #4F9362",
"6.	c #46161D",
"7.	c #93221A",
"8.	c #CF5E4A",
"9.	c #E98468",
"0.	c #E9765E",
"a.	c #DD5D4F",
"b.	c #E97962",
"c.	c #F38B6E",
"d.	c #E46C57",
"e.	c #D3322F",
"f.	c #D02928",
"g.	c #D12828",
"h.	c #CD2727",
"i.	c #BF1C1C",
"j.	c #A80101",
"k.	c #A50000",
"l.	c #980000",
"m.	c #4E0000",
"n.	c #3E3A3A",
"o.	c #676868",
"p.	c #6E6E6E",
"q.	c #403D3F",
"r.	c #3F5D47",
"s.	c #1C1D23",
"t.	c #450A09",
"u.	c #942D25",
"v.	c #DB6E58",
"w.	c #F99878",
"x.	c #F7A289",
"y.	c #F2B5A9",
"z.	c #F6AB97",
"A.	c #F69578",
"B.	c #ED7E65",
"C.	c #D7473C",
"D.	c #CB2727",
"E.	c #A21C1C",
"F.	c #910C0C",
"G.	c #A40101",
"H.	c #9F0000",
"I.	c #860000",
"J.	c #8F0000",
"K.	c #A20000",
"L.	c #8E0000",
"M.	c #5D0000",
"N.	c #180101",
"O.	c #000303",
"P.	c #545454",
"Q.	c #555555",
"R.	c #2E2E2E",
"S.	c #20191F",
"T.	c #201E23",
"U.	c #3A0505",
"V.	c #811414",
"W.	c #BB2A27",
"X.	c #DA4B40",
"Y.	c #ED8A75",
"Z.	c #F8D7CE",
"`.	c #F8EEEB",
" +	c #F7D2C9",
".+	c #F19E8C",
"++	c #DE5F4F",
"@+	c #D12929",
"#+	c #9A1C1C",
"$+	c #5A0C0C",
"%+	c #4A0404",
"&+	c #770C0C",
"*+	c #730F0F",
"=+	c #220000",
"-+	c #790000",
";+	c #640000",
">+	c #200101",
",+	c #010606",
"'+	c #4F4F4F",
")+	c #797979",
"!+	c #7C7C7C",
"~+	c #5A5A5A",
"{+	c #2A2A2A",
"]+	c #221A20",
"^+	c #340107",
"/+	c #6C0303",
"(+	c #AB1818",
"_+	c #CD2324",
":+	c #D6443A",
"<+	c #EC917F",
"[+	c #F7D6CE",
"}+	c #F8F4F3",
"|+	c #F8E2DC",
"1+	c #EE9C8D",
"2+	c #DA4F42",
"3+	c #CC2B2A",
"4+	c #9A1B1B",
"5+	c #570B0B",
"6+	c #160505",
"7+	c #1F1B1B",
"8+	c #605454",
"9+	c #575353",
"0+	c #1D1A1A",
"a+	c #010000",
"b+	c #370000",
"c+	c #1A0101",
"d+	c #000606",
"e+	c #8C8C8C",
"f+	c #919191",
"g+	c #808080",
"h+	c #2C292B",
"i+	c #616441",
"j+	c #950002",
"k+	c #AD0606",
"l+	c #C62E29",
"m+	c #E6715A",
"n+	c #F59679",
"o+	c #F7AD98",
"p+	c #F5CAC0",
"q+	c #F8BEAE",
"r+	c #F79677",
"s+	c #E6735D",
"t+	c #AD3A31",
"u+	c #5B0D0D",
"v+	c #190C0C",
"w+	c #282929",
"x+	c #888888",
"y+	c #7A7A7A",
"z+	c #585858",
"A+	c #1A1A1A",
"B+	c #040606",
"C+	c #57795F",
"D+	c #E6725B",
"E+	c #F38C6F",
"F+	c #F08870",
"G+	c #E47768",
"H+	c #EC7F66",
"I+	c #F69576",
"J+	c #E6735C",
"K+	c #5C1514",
"L+	c #383434",
"M+	c #A9A9A9",
"N+	c #C1C1C1",
"O+	c #989898",
"P+	c #1D1D1D",
"Q+	c #CD2525",
"R+	c #D43D35",
"S+	c #E36954",
"T+	c #DD5848",
"U+	c #D2322E",
"V+	c #D94A3F",
"W+	c #E06250",
"X+	c #DB4D41",
"Y+	c #CB2B29",
"Z+	c #952929",
"`+	c #9F9595",
" @	c #E8E8E8",
".@	c #EEEEEE",
"+@	c #BFBFBF",
"@@	c #949494",
"#@	c #8F8F8F",
"$@	c #767676",
"%@	c #B92222",
"&@	c #D1302D",
"*@	c #D02727",
"=@	c #D12D2B",
"-@	c #D2312E",
";@	c #CF2A29",
">@	c #C62525",
",@	c #912C2C",
"'@	c #949191",
")@	c #D2D2D2",
"!@	c #E1E1E1",
"~@	c #BEBEBE",
"{@	c #939393",
"]@	c #727272",
"^@	c #686868",
"/@	c #8D8D8D",
"(@	c #440707",
"_@	c #8E1616",
":@	c #C32323",
"<@	c #A61E1E",
"[@	c #2A0000",
"}@	c #353333",
"|@	c #A6A6A6",
"1@	c #737373",
"2@	c #373737",
"3@	c #191919",
"4@	c #404040",
"5@	c #8A8A8A",
"6@	c #656565",
"7@	c #2F2F2F",
"8@	c #46171D",
"9@	c #8F0707",
"0@	c #B12121",
"a@	c #731313",
"b@	c #272626",
"c@	c #5C5C5C",
"d@	c #363636",
"e@	c #151515",
"f@	c #141414",
"g@	c #575757",
"h@	c #898989",
"i@	c #757575",
"j@	c #3F3C3F",
"k@	c #AE0909",
"l@	c #C41E1E",
"m@	c #C82626",
"n@	c #961C1C",
"o@	c #450707",
"p@	c #222222",
"q@	c #252525",
"r@	c #940404",
"s@	c #B91616",
"t@	c #C92222",
"u@	c #CE2828",
"v@	c #B32222",
"w@	c #7C1515",
"x@	c #230404",
"y@	c #0F1111",
"z@	c #CCCCCC",
"A@	c #B4B4B4",
"B@	c #979797",
"C@	c #E4E4E4",
"D@	c #CBCBCB",
"E@	c #7D7D7D",
"F@	c #464546",
"G@	c #100000",
"H@	c #510505",
"I@	c #AE1C1C",
"J@	c #C62626",
"K@	c #AC2020",
"L@	c #BA2323",
"M@	c #801616",
"N@	c #2B0505",
"O@	c #091010",
"P@	c #D1D1D1",
"Q@	c #F2F2F2",
"R@	c #F4F4F4",
"S@	c #EDEDED",
"T@	c #F7F7F7",
"U@	c #E2E2E2",
"V@	c #ACACAC",
"W@	c #3E3E3E",
"X@	c #0D010B",
"Y@	c #0E0000",
"Z@	c #901919",
"`@	c #4B0404",
" #	c #841F1F",
".#	c #A33434",
"+#	c #801313",
"@#	c #081010",
"##	c #F1F1F1",
"$#	c #F9F9F9",
"%#	c #F8F8F8",
"&#	c #C4C4C4",
"*#	c #9C9C9C",
"=#	c #8E8E8E",
"-#	c #070004",
";#	c #0D0000",
">#	c #3E0707",
",#	c #181C1C",
"'#	c #706464",
")#	c #988585",
"!#	c #6D6767",
"~#	c #000808",
"{#	c #E7E7E7",
"]#	c #9E9E9E",
"^#	c #080707",
"/#	c #B8B8B8",
"(#	c #E5E4E4",
"_#	c #B3B3B3",
":#	c #F6F6F6",
"<#	c #F5F5F5",
"[#	c #E3E3E3",
"}#	c #C3C3C3",
"|#	c #9D9D9D",
"1#	c #505050",
"2#	c #D4D4D4",
"3#	c #959595",
"4#	c #D6D6D6",
"5#	c #D9D9D9",
"6#	c #DCDCDC",
"7#	c #A4A4A4",
"8#	c #171016",
"9#	c #B1B6B2",
"0#	c #666465",
"a#	c #535353",
"b#	c #BCBCBC",
"c#	c #3C383B",
"d#	c #366242",
"e#	c #40704D",
"f#	c #549566",
"g#	c #45614C",
"h#	c #160A14",
"i#	c #414141",
"j#	c #636363",
"k#	c #807F80",
"l#	c #190F17",
"m#	c #211A20",
"                                    . . . . . . . . . . . . . . . . . . . . . . . . . . . .                                     ",
"                                  . . . . . . . . . . . . . . . . . . . . . . . . . . . . . .                                   ",
"                                . . . . . . . . . . . . . . . . . . . . . . . . . . . . . . . .                                 ",
"                              . . . . . . . . . . . . . . . . . . . . . . . . . . . . . . . . . .                               ",
"                            . . . . . . . . . . . . . . . . . . . . . . . . . . . . . . . . . . . .                             ",
"                          . . . . . . . . . . . . . . . . . . . . . . . . . . . . . . . . . . . . . .                           ",
"                        . . . . . . . . . . . . . . . . . . . . . . . . . . . . . . . . . . . . . . . .                         ",
"                      . . . . . . . . . . . . . . . . . . . . . . . . . . . . . . . . . . . . . . . . . .                       ",
"                    . . . . . . . . . . . . . . . . . . . . . . . . . . . . . . . . . . . . . . . . . . . .                     ",
"                  . . . . . . . . . . . . . . . . . . . . . . . . . . . . . . . . . . . . . . . . . . . . . .                   ",
"                . . . . . . . . . . . . . . . . . . . . . . . . . . . . . . . . . . . . . . . . . . . . . . . .                 ",
"              . . . . . . . . . . . . . . . . . . . . . . . . . . . . . . . . . . . . . . . . . . . . . . . . . .               ",
"            . . . . . . . . . . . . . . . . . . . . . . . . . . . . . . . . . . . . . . . . . . . . . . . . . . . .             ",
"          . . . . . . . . . . . . . . . . . . . . . . . . . . . . . . . . . . . . . . . . . . . . . . . . . . . . . .           ",
"        . . . . . . . . . . . . . . . . . . . . . . . . . . . . . . . . . . . . . . . . . . . . . . . . . . . . . . . .         ",
"      . . . . . . . . . . . . . . . . . . . . . . . . . + @ # . . # @ + . . . . . . . . . . . . . . . . . . . . . . . . .       ",
"    . . . . . . . . . . . . . . . . . . . . . . . . . + $ % & # # & % $ + . . . . . . . . . . . . . . . . . . . . . . . . .     ",
"  . . . . . . . . . . . . . . . . . . . . . . * # = + $ - ; > , , > ; - $ + = # * . . . . . . . . . . . . . . . . . . . . . .   ",
". . . . . . . . . . . . . . . . . . . . . . * ' ) ! ~ { ] ^ / ( ( / ^ _ : < [ ) ' * . . . . . . . . . . . . . . . . . . . . . . ",
". . . . . . . . . . . . . . . . . . . . . * ' } | 1 2 3 4 5 6 7 7 6 5 8 9 0 a b } ' * . . . . . . . . . . . . . . . . . . . . . ",
". . . . . . . . . . . . . . . . . . . . * ' } c d e f g h i j k k j i l m n o p q r ' * . . . . . . . . . . . . . . . . . . . . ",
". . . . . . . . . . . . . . . . . . . * ' } c d s f t f u t t f f t t v s w x y p z r ' * . . . . . . . . . . . . . . . . . . . ",
". . . . . . . . . . . . . . . . . . * ' } c d s f A B C t A D E t t t t u F 7 n G H I r ' * . . . . . . . . . . . . . . . . . . ",
". . . . . . . . . . . . . . . . . * ' } c d s f J K L K M N L O E t t t t u s n P Q R I } ' * . . . . . . . . . . . . . . . . . ",
". . . . . . . . . . . . . . . . . # ) | d s f J K S T U V W T X O E t t t t Y Z `  ...+.@.) # . . . . . . . . . . . . . . . . . ",
". . . . . . . . . . . . . . . . . = ! 1 #.f $.%.U T &.&.*.T T T X =.-.t t j ;.Z >.,.'.).!.~.= . . . . . . . . . . . . . . . . . ",
". . . . . . . . . . . . . . . . . + ~ 2 j {.].^./.(._.:.<.T T T [.}.E t t u 6 x |.1.2.3.4.5.+ . . . . . . . . . . . . . . . . . ",
". . . . . . . . . . . . . . . . + $ { 6.7.8.9.0.a.b.c.d.e.f.g.h.i.O j.j k.j l.l m.n.o.p.q.r.$ + . . . . . . . . . . . . . . . . ",
". . . . . . . . . . . . . . . + $ - s.t.u.v.w.x.y.z.A.B.C.g.D.E.F.G.H.I.J.K.L.M.N.O.P.Q.R.S.- $ + . . . . . . . . . . . . . . . ",
". . . . . . . . . . . . . . . @ % T.U.V.W.X.Y.Z.`. +.+++@+D.#+$+%+&+*+=+M.-+;+>+,+'+)+!+~+{+]+% @ . . . . . . . . . . . . . . . ",
". . . . . . . . . . . . . . . # & ^+/+(+_+:+<+[+}+|+1+2+3+4+5+6+7+8+9+0+a+b+c+d+'+)+e+f+g+~+h+& # . . . . . . . . . . . . . . . ",
". . . . . . . . . . . . . . . . # i+j+k+l+m+n+o+p+q+r+s+t+u+v+w+'.x+y+z+A+I B+'+)+e+3.3.3.g+C+# . . . . . . . . . . . . . . . . ",
". . . . . . . . . . . . . . . . # i+j+k+l+D+E+F+G+H+I+J+t+K+L+M+N+O+3.).z+P+'+)+e+3.3.3.3.g+C+# . . . . . . . . . . . . . . . . ",
". . . . . . . . . . . . . . . # & ^+/+(+Q+R+S+T+U+V+W+X+Y+Z+`+ @.@+@@@#@).~+$@e+3.3.3.3.g+~+h+& # . . . . . . . . . . . . . . . ",
". . . . . . . . . . . . . . . @ % T.U.V.%@T &@f.*@=@-@;@>@,@'@)@!@~@{@3.]@!.^@/@3.3.3.g+~+{+]+% @ . . . . . . . . . . . . . . . ",
". . . . . . . . . . . . . . . + $ - s.(@_@:@T T T T T h.<@[@}@/@|@@@#@1@2@3@4@)+3.3.5@6@7@S.- $ + . . . . . . . . . . . . . . . ",
". . . . . . . . . . . . . . . . + $ { 8@9@K S T T T T h.0@a@I b@c@y+1@d@e@f@g@h@3.3.#@i@j@r.$ + . . . . . . . . . . . . . . . . ",
". . . . . . . . . . . . . . . . . + ~ 2 j k@l@[.T T T g.m@n@o@I p@y+6@q@q@y+3.f+3.3.3.#@4.5.+ . . . . . . . . . . . . . . . . . ",
". . . . . . . . . . . . . . . . . = ! 1 r@s@t@*.[.T T u@v@w@x@y@e+z@A@1@B@C@D@B@f+3.#@E@F@~.= . . . . . . . . . . . . . . . . . ",
". . . . . . . . . . . . . . . . . # ) G@H@I@h.J@K@L@u@v@M@N@O@e+P@Q@R@P@S@T@U@V@f+#@E@W@X@) # . . . . . . . . . . . . . . . . . ",
". . . . . . . . . . . . . . . . . * ' } Y@u+K@Z@`@ #.#+#N@@#e+P@##$#$#T@%# @&#*#=#E@W@-#} ' * . . . . . . . . . . . . . . . . . ",
". . . . . . . . . . . . . . . . . . * ' } ;#>#=+,#'#)#!#~#e+P@##$#%#%#%#{#&#]#=#E@W@-#r ' * . . . . . . . . . . . . . . . . . . ",
". . . . . . . . . . . . . . . . . . . * ' r I ^#c@/#(#_#{@P@##:#<#%#$#[#}#|#=#E@W@-#r ' * . . . . . . . . . . . . . . . . . . . ",
". . . . . . . . . . . . . . . . . . . . * ' r a+1#2#%#+@3#4#Q@5#5###6#7#2./@E@W@-#r ' * . . . . . . . . . . . . . . . . . . . . ",
". . . . . . . . . . . . . . . . . . . . . * ' } 8#1@9#0#a#O+b#]#]#b#O+1#c#4.F@X@} ' * . . . . . . . . . . . . . . . . . . . . . ",
". . . . . . . . . . . . . . . . . . . . . . * ' d#e#f#g#h#i#j#k#k#j#i#l#r.5.~.) ' * . . . . . . . . . . . . . . . . . . . . . . ",
"  . . . . . . . . . . . . . . . . . . . . . . * # = + $ - m#h+C+C+h+m#- $ + = # * . . . . . . . . . . . . . . . . . . . . . .   ",
"    . . . . . . . . . . . . . . . . . . . . . . . . . + $ % & # # & % $ + . . . . . . . . . . . . . . . . . . . . . . . . .     ",
"      . . . . . . . . . . . . . . . . . . . . . . . . . + @ # . . # @ + . . . . . . . . . . . . . . . . . . . . . . . . .       ",
"        . . . . . . . . . . . . . . . . . . . . . . . . . . . . . . . . . . . . . . . . . . . . . . . . . . . . . . . .         ",
"          . . . . . . . . . . . . . . . . . . . . . . . . . . . . . . . . . . . . . . . . . . . . . . . . . . . . . .           ",
"            . . . . . . . . . . . . . . . . . . . . . . . . . . . . . . . . . . . . . . . . . . . . . . . . . . . .             ",
"              . . . . . . . . . . . . . . . . . . . . . . . . . . . . . . . . . . . . . . . . . . . . . . . . . .               ",
"                . . . . . . . . . . . . . . . . . . . . . . . . . . . . . . . . . . . . . . . . . . . . . . . .                 ",
"                  . . . . . . . . . . . . . . . . . . . . . . . . . . . . . . . . . . . . . . . . . . . . . .                   ",
"                    . . . . . . . . . . . . . . . . . . . . . . . . . . . . . . . . . . . . . . . . . . . .                     ",
"                      . . . . . . . . . . . . . . . . . . . . . . . . . . . . . . . . . . . . . . . . . .                       ",
"                        . . . . . . . . . . . . . . . . . . . . . . . . . . . . . . . . . . . . . . . .                         ",
"                          . . . . . . . . . . . . . . . . . . . . . . . . . . . . . . . . . . . . . .                           ",
"                            . . . . . . . . . . . . . . . . . . . . . . . . . . . . . . . . . . . .                             ",
"                              . . . . . . . . . . . . . . . . . . . . . . . . . . . . . . . . . .                               ",
"                                . . . . . . . . . . . . . . . . . . . . . . . . . . . . . . . .                                 ",
"                                  . . . . . . . . . . . . . . . . . . . . . . . . . . . . . .                                   ",
"                                    . . . . . . . . . . . . . . . . . . . . . . . . . . . .                                     "};
