/* XPM */
static char * 10_xpm[] = {
"64 64 471 2",
"  	c #509B66",
". 	c #3F6649",
"+ 	c #3F6E4B",
"@ 	c #3D6147",
"# 	c #2B2E28",
"$ 	c #3F2A1D",
"% 	c #636240",
"& 	c #3A6B47",
"* 	c #43724C",
"= 	c #426045",
"- 	c #2B2D28",
"; 	c #460D0E",
"> 	c #710807",
", 	c #91190F",
"' 	c #326440",
") 	c #292819",
"! 	c #572D23",
"~ 	c #76432F",
"{ 	c #542522",
"] 	c #520F10",
"^ 	c #831414",
"/ 	c #A81717",
"( 	c #AD0E0D",
"_ 	c #841615",
": 	c #541413",
"< 	c #542622",
"[ 	c #764330",
"} 	c #272718",
"| 	c #2A2516",
"1 	c #5E0A08",
"2 	c #910909",
"3 	c #A10D08",
"4 	c #910C0C",
"5 	c #931717",
"6 	c #B62121",
"7 	c #C92826",
"8 	c #C7352D",
"9 	c #CA2827",
"0 	c #B92D29",
"a 	c #9A332A",
"b 	c #962A21",
"c 	c #A1140E",
"d 	c #8E0605",
"e 	c #550302",
"f 	c #242415",
"g 	c #272516",
"h 	c #671110",
"i 	c #A81A1A",
"j 	c #B61616",
"k 	c #B10D0D",
"l 	c #B81717",
"m 	c #C12222",
"n 	c #CE2A29",
"o 	c #D6453A",
"p 	c #E36E58",
"q 	c #E46F59",
"r 	c #D95145",
"s 	c #D95346",
"t 	c #D86B56",
"u 	c #CC5D49",
"v 	c #B43125",
"w 	c #A50905",
"x 	c #8E0000",
"y 	c #550301",
"z 	c #316440",
"A 	c #162515",
"B 	c #490B0A",
"C 	c #A31E1E",
"D 	c #C72525",
"E 	c #C82222",
"F 	c #C41E1E",
"G 	c #C92323",
"H 	c #CF2828",
"I 	c #D23530",
"J 	c #E16652",
"K 	c #F1886D",
"L 	c #F3947A",
"M 	c #EC9483",
"N 	c #ED907D",
"O 	c #F49476",
"P 	c #E67F64",
"Q 	c #C74A3C",
"R 	c #AF1914",
"S 	c #A50202",
"T 	c #326441",
"U 	c #1B2B1F",
"V 	c #1C1A19",
"W 	c #370909",
"X 	c #8F1919",
"Y 	c #C22525",
"Z 	c #CE2727",
"` 	c #D02828",
" .	c #D12F2C",
"..	c #DD5A4A",
"+.	c #EE8871",
"@.	c #F6AF9C",
"#.	c #F6D1C9",
"$.	c #F7D1C7",
"%.	c #F6A58F",
"&.	c #E77760",
"*.	c #D1463A",
"=.	c #BB1E1B",
"-.	c #AD0909",
";.	c #A50101",
">.	c #3A6B48",
",.	c #333C35",
"'.	c #5F5F5F",
").	c #616161",
"!.	c #372F2F",
"~.	c #621111",
"{.	c #AD2020",
"].	c #CC2727",
"^.	c #D02929",
"/.	c #D54039",
"(.	c #E67F70",
"_.	c #F4C6BC",
":.	c #F8EDEA",
"<.	c #F7E7E2",
"[.	c #F2B3A7",
"}.	c #E0695B",
"|.	c #C72222",
"1.	c #BA1717",
"2.	c #AD0808",
"3.	c #497755",
"4.	c #7E817E",
"5.	c #C9C9C9",
"6.	c #B5B4B4",
"7.	c #7A6B6B",
"8.	c #882B2B",
"9.	c #B92323",
"0.	c #CE2828",
"a.	c #D2302D",
"b.	c #DA4F43",
"c.	c #EC846D",
"d.	c #F7BBAC",
"e.	c #F7DBD4",
"f.	c #F7CFC6",
"g.	c #F5AB98",
"h.	c #E87A65",
"i.	c #D6433A",
"j.	c #CF2929",
"k.	c #BA1616",
"l.	c #AC0606",
"m.	c #A40001",
"n.	c #8E0505",
"o.	c #572C23",
"p.	c #ABB1AC",
"q.	c #EBEBEB",
"r.	c #DBD9D9",
"s.	c #9B8787",
"t.	c #A13C3C",
"u.	c #C82828",
"v.	c #D02928",
"w.	c #D33531",
"x.	c #E06150",
"y.	c #F28E71",
"z.	c #F5987C",
"A.	c #EE9E90",
"B.	c #F09E8D",
"C.	c #F4957A",
"D.	c #F0856A",
"E.	c #DC5748",
"F.	c #D12E2C",
"G.	c #CE2626",
"H.	c #C11C1C",
"I.	c #B00B0B",
"J.	c #A80101",
"K.	c #A00B07",
"L.	c #496951",
"M.	c #757675",
"N.	c #BBBBBB",
"O.	c #B2B2B2",
"P.	c #776C6C",
"Q.	c #832626",
"R.	c #B12121",
"S.	c #CA2727",
"T.	c #CB2727",
"U.	c #CF2E2B",
"V.	c #DA4F42",
"W.	c #E3705A",
"X.	c #E3715B",
"Y.	c #DC5B4D",
"Z.	c #DF6555",
"`.	c #EA7A62",
" +	c #E36A56",
".+	c #D53D36",
"++	c #D02A29",
"@+	c #AB0404",
"#+	c #A50000",
"$+	c #890404",
"%+	c #532521",
"&+	c #3D6146",
"*+	c #2D332E",
"=+	c #626262",
"-+	c #9B9B9B",
";+	c #979797",
">+	c #454444",
",+	c #411111",
"'+	c #821616",
")+	c #B02121",
"!+	c #A81E1E",
"~+	c #C12626",
"{+	c #C6302C",
"]+	c #B03E34",
"^+	c #C8302D",
"/+	c #D2332F",
"(+	c #D8483D",
"_+	c #D43A34",
":+	c #D02C2A",
"<+	c #CF2727",
"[+	c #C72121",
"}+	c #B30F0F",
"|+	c #A90202",
"1+	c #A00000",
"2+	c #7B0001",
"3+	c #450909",
"4+	c #2A2C28",
"5+	c #2B312D",
"6+	c #4D4C4D",
"7+	c #999999",
"8+	c #D0D0D0",
"9+	c #CCCCCC",
"0+	c #909191",
"a+	c #3D3C3C",
"b+	c #400F0F",
"c+	c #7C1515",
"d+	c #921B1B",
"e+	c #761414",
"f+	c #531515",
"g+	c #923A3A",
"h+	c #973A3A",
"i+	c #6A211F",
"j+	c #691614",
"k+	c #9C1C1C",
"l+	c #C62626",
"m+	c #D02B2A",
"n+	c #CC2525",
"o+	c #BF1B1B",
"p+	c #AD0606",
"q+	c #A60000",
"r+	c #930000",
"s+	c #690101",
"t+	c #370A0B",
"u+	c #292E28",
"v+	c #3E6E4C",
"w+	c #38413A",
"x+	c #6B6B6B",
"y+	c #B8B8B8",
"z+	c #EAEAEA",
"A+	c #ECECEC",
"B+	c #CECECE",
"C+	c #340D0D",
"D+	c #490909",
"E+	c #2B1212",
"F+	c #4C4949",
"G+	c #968F8F",
"H+	c #A09494",
"I+	c #574F4F",
"J+	c #311919",
"K+	c #600F0F",
"L+	c #C01C1C",
"M+	c #AF0808",
"N+	c #A20000",
"O+	c #850000",
"P+	c #560403",
"Q+	c #322A1D",
"R+	c #3E6E4B",
"S+	c #587960",
"T+	c #7F807F",
"U+	c #A4A4A4",
"V+	c #DADADA",
"W+	c #F3F3F3",
"X+	c #EDEDED",
"Y+	c #919191",
"Z+	c #3C3C3C",
"`+	c #191111",
" @	c #3B3A3A",
".@	c #8D8D8D",
"+@	c #DEDDDD",
"@@	c #A6A6A6",
"#@	c #444444",
"$@	c #2C0F0F",
"%@	c #650F0F",
"&@	c #A41C1C",
"*@	c #CA2626",
"=@	c #C31E1E",
"-@	c #B40F0F",
";@	c #AB0303",
">@	c #9B0000",
",@	c #860000",
"'@	c #6F190E",
")@	c #526240",
"!@	c #D9D9D9",
"~@	c #F4F4F4",
"{@	c #F7F7F7",
"]@	c #EEEEEE",
"^@	c #909090",
"/@	c #434343",
"(@	c #E6E6E6",
"_@	c #BCBCBC",
":@	c #707070",
"<@	c #362D2D",
"[@	c #560A0A",
"}@	c #940E0E",
"|@	c #BD1C1C",
"1@	c #CB2525",
"2@	c #A80000",
"3@	c #B7B7B7",
"4@	c #F8F8F8",
"5@	c #C5C5C5",
"6@	c #7E7E7E",
"7@	c #7A7A7A",
"8@	c #BEBEBE",
"9@	c #9D9D9D",
"0@	c #848383",
"a@	c #625454",
"b@	c #771919",
"c@	c #A00404",
"d@	c #B20D0D",
"e@	c #B81515",
"f@	c #9A9A9A",
"g@	c #D8D8D8",
"h@	c #F5F5F5",
"i@	c #B4B4B4",
"j@	c #6E6E6E",
"k@	c #727272",
"l@	c #8C8C8C",
"m@	c #969696",
"n@	c #8E8E8E",
"o@	c #787878",
"p@	c #5B5151",
"q@	c #721A1A",
"r@	c #9B0101",
"s@	c #A80202",
"t@	c #AA0202",
"u@	c #2D322E",
"v@	c #A9A9A9",
"w@	c #E0E0E0",
"x@	c #D4D4D4",
"y@	c #848484",
"z@	c #3B3B3B",
"A@	c #424242",
"B@	c #595959",
"C@	c #2D2828",
"D@	c #410505",
"E@	c #870000",
"F@	c #A40000",
"G@	c #A70000",
"H@	c #750001",
"I@	c #410909",
"J@	c #406349",
"K@	c #4C4E4C",
"L@	c #8B8B8B",
"M@	c #C2C2C2",
"N@	c #E5E5E5",
"O@	c #E7E7E7",
"P@	c #A0A0A0",
"Q@	c #212121",
"R@	c #777777",
"S@	c #292929",
"T@	c #200707",
"U@	c #5F0000",
"V@	c #8F0000",
"W@	c #910000",
"X@	c #6F0404",
"Y@	c #432521",
"Z@	c #3F6045",
"`@	c #68736A",
" #	c #8A8B8A",
".#	c #A1A1A1",
"+#	c #F2F2F2",
"@#	c #808080",
"##	c #2F2F2F",
"$#	c #272727",
"%#	c #4D4D4D",
"&#	c #5B5B5B",
"*#	c #313131",
"=#	c #110A0A",
"-#	c #3A0000",
";#	c #760000",
">#	c #9D0000",
",#	c #A10000",
"'#	c #7A0B07",
")#	c #5D432F",
"!#	c #41734F",
"~#	c #4D524E",
"{#	c #797979",
"]#	c #A2A2A2",
"^#	c #C4C4C4",
"/#	c #DCDCDC",
"(#	c #C8C8C8",
"_#	c #5E5E5E",
":#	c #4B4B4B",
"<#	c #686868",
"[#	c #525252",
"}#	c #201F1F",
"|#	c #270303",
"1#	c #630000",
"2#	c #8B0000",
"3#	c #950000",
"4#	c #8C0000",
"5#	c #920000",
"6#	c #7E0000",
"7#	c #6C0505",
"8#	c #452C23",
"9#	c #41724C",
"0#	c #232F27",
"a#	c #484848",
"b#	c #9F9F9F",
"c#	c #ADADAD",
"d#	c #868686",
"e#	c #7B7B7B",
"f#	c #898989",
"g#	c #300303",
"h#	c #5E0000",
"i#	c #720000",
"j#	c #7C0202",
"k#	c #760101",
"l#	c #7D0000",
"m#	c #7C0000",
"n#	c #6B0000",
"o#	c #3F0302",
"p#	c #202718",
"q#	c #396B47",
"r#	c #1F2D22",
"s#	c #939393",
"t#	c #8F8F8F",
"u#	c #8A8A8A",
"v#	c #280404",
"w#	c #500D0D",
"x#	c #631A1A",
"y#	c #530F0F",
"z#	c #3D0202",
"A#	c #570000",
"B#	c #3E0301",
"C#	c #1C2415",
"D#	c #202D22",
"E#	c #252424",
"F#	c #443D3D",
"G#	c #5B4C4C",
"H#	c #463B3B",
"I#	c #1D1616",
"J#	c #1F0202",
"K#	c #2A0301",
"L#	c #1A2415",
"M#	c #767676",
"N#	c #565656",
"O#	c #666767",
"P#	c #7F7E7E",
"Q#	c #353535",
"R#	c #0C0C0A",
"S#	c #112515",
"T#	c #898A89",
"U#	c #757575",
"V#	c #696969",
"W#	c #6C6C6C",
"X#	c #888988",
"Y#	c #747474",
"Z#	c #132718",
"`#	c #494B4A",
" $	c #5C5C5C",
".$	c #383838",
"+$	c #484B49",
"@$	c #4C524E",
"#$	c #212E24",
"$$	c #40634A",
"%$	c #292F2A",
"&$	c #343434",
"*$	c #7C7E7D",
"=$	c #2A2F2B",
"-$	c #374039",
"                                                                                                                                ",
"                                                                                                                                ",
"                                                                                                                                ",
"                                                                                                                                ",
"                                                                                                                                ",
"                                                                                                                                ",
"                                                                                                                                ",
"                                                                                                                                ",
"                                                                                                                                ",
"                                                                                                                                ",
"                                                                                                                                ",
"                                                                                                                                ",
"                                                                                                                                ",
"                                                                                                                                ",
"                                                                                                                                ",
"                                                                                                                                ",
"                                                          . +     + .                                                           ",
"                                                        @ # $ % % $ # @                                                         ",
"                                                & *   = - ; > , , > ; - =   * &                                                 ",
"                                              ' ) ! ~ { ] ^ / ( ( / _ : < [ ! } '                                               ",
"                                            ' | 1 2 3 4 5 6 7 8 8 9 0 a b c d e f '                                             ",
"                                          ' g h i j k l m n o p q r s t u v w x y f '                                           ",
"                                        z A B C D E F G H I J K L M N O P Q R S x y f '                                         ",
"                                      T U V W X Y Z Z H `  ...+.@.#.$.%.&.*.=.-.;.x y f '                                       ",
"                                    >.,.'.).!.~.{.].` ` ` ^./.(._.:.<.[.}.I |.1.2.;.x e } &                                     ",
"                                    3.4.5.6.7.8.9.0.` ` ` a.b.c.d.e.f.g.h.i.j.E k.l.m.n.o.*                                     ",
"                                      p.q.r.s.t.u.H ` ` v.w.x.y.z.A.B.C.D.E.F.G.H.I.J.K.~                                       ",
"                                    L.M.N.O.P.Q.R.S.H T.T.U.V.W.X.Y.Z.`. +.+++E k.@+#+$+%+=                                     ",
"                                  &+*+=+-+;+>+,+'+)+Y R.!+~+{+]+]+^+/+(+_+:+<+[+}+|+1+2+3+4+@                                   ",
"                                . 5+6+7+8+9+0+a+b+c+d+e+f+g+h+i+j+k+l+m+++` ` n+o+p+q+r+s+t+u+.                                 ",
"                                v+w+x+y+z+A+B+0+a+C+D+E+F+G+H+I+J+K+k+l+` ` ` G.L+M+J.N+O+P+Q+R+                                ",
"                                  S+T+U+V+W+X+B+Y+Z+`+ @.@9++@@@#@$@%@&@*@H Z =@-@;@q+>@,@'@)@                                  ",
"                                  S+T+U+!@~@{@]@B+^@/@=+U+V+(@_@:@<@[@}@|@1@=@-@;@2@q+>@,@'@)@                                  ",
"                                v+w+x+3@z+{@4@4@X+5@6@7@;+N.8@9@0@a@b@c@d@e@d@;@2@2@2@N+O+P+Q+R+                                ",
"                                . 5+6+f@g@h@4@4@X+i@j@k@l@m@;+n@o@p@q@r@s@;@t@2@2@2@q+r+s+t+u+.                                 ",
"                                  &+u@'.v@w@h@h@x@y@z@A@k@l@l@7@B@C@D@E@F@2@2@2@2@G@>@H@I@4+@                                   ",
"                                    J@K@L@M@N@~@O@P@/@Q@A@:@R@B@S@T@U@V@F@G@2@2@G@1+W@X@Y@Z@                                    ",
"                                      `@ #.#5@N@+#!@@###$#%#&#*#=#-#;#>#F@,##+q+1+r+O+'#)#                                      ",
"                                    !#~#{#n@]#^#/#(#Y+_#:#<#k@[#}#|#1#2#3#4#3#>@5#,@6#7#8#9#                                    ",
"                                    >.0#a#{#n@b#c#9@Y+d#e#f#f#R@[#}#g#h#i#j#k#;#l#m#n#o#p#q#                                    ",
"                                      ' r#a#{#.@s#Y+^@t#n@^@t#u#R@[#}#v#w#x#y#z#A#1#B#C#z                                       ",
"                                        ' D#a#{#.@^@^@^@^@^@^@t#u#R@[#E#F#G#H#I#J#K#L#'                                         ",
"                                          ' D#a#{#l@^@.@f#n@^@^@t#u#M#N#O#P#<#Q#R#S#'                                           ",
"                                            ' r#a#{#T#U#V#6@n@^@^@n@{#B@W#X#Y#Q#Z#z                                             ",
"                                              ' 0#~#`@`#z@ $6@n@n@6@ $.$+$`@@$#$z                                               ",
"                                                >.!#  $$%$&$ $*$*$ $&$%$$$  !#>.                                                ",
"                                                        @ =$-$S+S+-$=$@                                                         ",
"                                                          . v+    v+.                                                           ",
"                                                                                                                                ",
"                                                                                                                                ",
"                                                                                                                                ",
"                                                                                                                                ",
"                                                                                                                                ",
"                                                                                                                                ",
"                                                                                                                                ",
"                                                                                                                                ",
"                                                                                                                                ",
"                                                                                                                                ",
"                                                                                                                                ",
"                                                                                                                                ",
"                                                                                                                                ",
"                                                                                                                                ",
"                                                                                                                                ",
"                                                                                                                                "};
