/* XPM */
static char * Untitled_xpm[] = {
"64 64 171 2",
"  	c #509B66",
". 	c #FBAF5B",
"+ 	c #722B31",
"@ 	c #9C424B",
"# 	c #712D2E",
"$ 	c #B76444",
"% 	c #F88A33",
"& 	c #A7434D",
"* 	c #FFD23B",
"= 	c #FFDA5E",
"- 	c #84383A",
"; 	c #953740",
"> 	c #B4525C",
", 	c #FCD85E",
"' 	c #732A31",
") 	c #BF8253",
"! 	c #FCC938",
"~ 	c #944445",
"{ 	c #8D4645",
"] 	c #8D4140",
"^ 	c #FFBF3A",
"/ 	c #FADB29",
"( 	c #F4C336",
"_ 	c #FFDA2D",
": 	c #FFBA32",
"< 	c #773037",
"[ 	c #84353D",
"} 	c #F3B627",
"| 	c #E7C909",
"1 	c #F6C11B",
"2 	c #9A466A",
"3 	c #873736",
"4 	c #95463F",
"5 	c #95434F",
"6 	c #905229",
"7 	c #72212A",
"8 	c #612042",
"9 	c #FFC828",
"0 	c #F1CE28",
"a 	c #FFD122",
"b 	c #FBE223",
"c 	c #F6CD41",
"d 	c #732B2E",
"e 	c #672A18",
"f 	c #74393D",
"g 	c #76302E",
"h 	c #652C11",
"i 	c #6F2B36",
"j 	c #732940",
"k 	c #763136",
"l 	c #411100",
"m 	c #772555",
"n 	c #752A3F",
"o 	c #51200F",
"p 	c #96463F",
"q 	c #8A3F3C",
"r 	c #9C4241",
"s 	c #93484D",
"t 	c #96523D",
"u 	c #794223",
"v 	c #964A4E",
"w 	c #A35A49",
"x 	c #7E3D1F",
"y 	c #9D433A",
"z 	c #9A4854",
"A 	c #93463C",
"B 	c #7C2E17",
"C 	c #782B25",
"D 	c #7D2B20",
"E 	c #7B232F",
"F 	c #832E33",
"G 	c #D29252",
"H 	c #FFE764",
"I 	c #651C2F",
"J 	c #661E22",
"K 	c #712527",
"L 	c #772937",
"M 	c #752C26",
"N 	c #641200",
"O 	c #6F2518",
"P 	c #792735",
"Q 	c #E38C3D",
"R 	c #F8B469",
"S 	c #78332C",
"T 	c #F8BD57",
"U 	c #782D0D",
"V 	c #752E3C",
"W 	c #773634",
"X 	c #5B0A00",
"Y 	c #7C2C35",
"Z 	c #6B1C0F",
"` 	c #782E2B",
" .	c #C76854",
"..	c #FFBC4D",
"+.	c #69161E",
"@.	c #FFB06A",
"#.	c #F3A930",
"$.	c #782F28",
"%.	c #833038",
"&.	c #712822",
"*.	c #5D0D00",
"=.	c #9A4644",
"-.	c #984346",
";.	c #994749",
">.	c #954639",
",.	c #8F4544",
"'.	c #A64A3B",
").	c #BE564D",
"!.	c #F9B138",
"~.	c #7D262F",
"{.	c #FEAE59",
"].	c #9D4031",
"^.	c #983E47",
"/.	c #9F4A43",
"(.	c #9B464D",
"_.	c #94463C",
":.	c #7F311A",
"<.	c #95494B",
"[.	c #9D4841",
"}.	c #9F3A4C",
"|.	c #CF8139",
"1.	c #F6B14A",
"2.	c #8B3041",
"3.	c #993D42",
"4.	c #9E4251",
"5.	c #9B483A",
"6.	c #A2494F",
"7.	c #934338",
"8.	c #7B2D17",
"9.	c #8B3840",
"0.	c #772A32",
"a.	c #883D41",
"b.	c #82332C",
"c.	c #8A3E40",
"d.	c #8D3F3F",
"e.	c #8D3F35",
"f.	c #903E42",
"g.	c #883644",
"h.	c #8B4134",
"i.	c #8A3D43",
"j.	c #893B49",
"k.	c #863F3B",
"l.	c #8F3F4C",
"m.	c #8E4139",
"n.	c #72220B",
"o.	c #79263A",
"p.	c #631C2A",
"q.	c #6E232A",
"r.	c #78253F",
"s.	c #792A2F",
"t.	c #722722",
"u.	c #7A2A45",
"v.	c #762B32",
"w.	c #6B2327",
"x.	c #732B36",
"y.	c #702A35",
"z.	c #6E2C2E",
"A.	c #762C3D",
"B.	c #752B2A",
"C.	c #671601",
"D.	c #761A33",
"E.	c #723031",
"F.	c #78282B",
"G.	c #712C27",
"H.	c #6F2D37",
"I.	c #6D2E36",
"J.	c #6F302B",
"K.	c #682931",
"L.	c #682A2B",
"M.	c #782245",
"N.	c #FFE74C",
"                                                                                                                                ",
"                                                                                                                                ",
"                                                                                                                                ",
"                                                                                                                                ",
"                                                                                                                                ",
"                                                                                                                                ",
"                                                                                                                                ",
"                                                                                                                                ",
"                                                                                                                                ",
"                                                                                                                                ",
"                                                                                                                                ",
"                                                                                                                                ",
"                                                                                                                                ",
"                                                                                                                                ",
"                                                                                                                                ",
"                    . . . . . . . . . . . . . . . . . . . . . . . . . . . . . . . . . . . . .                                   ",
"                . . . . . . . . . . . . . . . . . . . . . . . . . . . . . . . . . . . . . . .                                   ",
"              . . . + + . . . . @ @ @ @ @ @ @ @ @ @ @ @ @ @ @ @ @ @ @ @ @ @ @ @ @ @ @ # # $ %                                   ",
"            . . + + + + . . . . @ @ @ @ @ @ @ @ @ @ @ @ @ @ @ @ @ @ @ @ @ @ @ @ @ @ # # # $ % & * =                             ",
"            . . + + + + . . . . - - - - - - - - - - - - - - - - - - - - - - - - - # # # # $ % ; > * =                           ",
"          . . + + + + + . . , , ' ' ' ' ' ' ' ' ' ' ' ' ' ' ' ' ' ' ' ' ' ' ' ' ' # # # # ) ! ' ; & * =                         ",
"          . . + + + + + . . , , ' ' ' ' ' ' ' ' ' ' ' ' ' ' ' ' ' ' ' ' ' ' ' ' ' # # # # ) ! ~ ~ { ] * =                       ",
"          . . + + + + + . . , , @ @ @ @ @ @ @ @ @ @ @ @ @ @ @ @ @ @ @ @ @ @ @ @ @ # # # # ) ! ~ ~ ~ { ] * =                     ",
"          . . + + + + + . . , , @ @ @ @ @ @ @ @ @ @ @ @ ^ * * / ^ @ @ @ @ @ @ @ @ # # # # ) ! ~ ~ ~ ~ { ] * =                   ",
"          . . + + + + + . . , , @ @ @ @ @ @ @ @ @ @ @ @ / * ( _ * / @ @ @ @ @ @ @ # # # # ) ! ~ ~ ~ ~ ~ { ] * =                 ",
"          . . + + + + + . . , , ' ' ' ' ' ' ' ' ' ' ' ' ' ^ * : * * ' ' ' ' ' ' ' # # # # ) ! ' ' ' ' ' < [ * =                 ",
"          . . + + + + + . . , , ' ' ' ' ' ' ' ' ' ' * / * / * * ^ * * : / ' ' ' ' - / * * ^ ! ' ' ' ' ' < [ * =                 ",
"            . . + + + + . . , , - - - - - - - - - - : } | * * * * * ^ * * - - - - @ * 1 : / ! ' ' ' ' ' < [ * =                 ",
"            . . . + + + . . , , @ @ @ @ @ @ @ @ @ : / * * : 2 * * ^ * * @ @ @ @ @ @ * / * * ! ~ ~ ~ ~ ~ ] 3 * =                 ",
"              . . . + + . . , , @ @ @ @ @ * * : * * 4 5 6 * * ^ * : ^ * / / * ^ * / * 7 8 * ^ * * * / ~ ] 3 * =                 ",
"                . . . . . . , , : ^ * : * * : ^ / * * * / * * / * * : * * * ^ : ^ ^ * * * * 9 0 a b * ~ ] 3 * =                 ",
"                    . . . . , , * * ^ * ^ / * * / * / * / / ^ * * / * ^ / * * * * ^ : ^ ^ / * * / / * c c c c c                 ",
"                            . . . . . . . . . . . . . . . . . , , , , , , , , , , , , , , , , , , , , , , , , ,                 ",
"                            . . . . . . . . . . . . . . . . . , , , , , , , , , , , , , , , , , , , , , , , , ,                 ",
"                            . . d d d d d d d d d d d d e . . , , f f g h , , i i i i i i i i i , , i j k l , ,                 ",
"                            . . d d d d d d d d d d d d e . . , , f f g h , , i d d d d d d d d , , i m n o , ,                 ",
"                            . . ~ ~ ~ ~ ~ ~ ~ ~ ~ ~ ~ ~ 3 . . , , ~ ~ p q , , r r r r r r r r r , , s s t u , ,                 ",
"                            . . ~ ~ ~ ~ ~ ~ ~ ~ ~ ~ ~ ~ 3 . . , , ~ ~ p q , , r r r r r r r r r , , s v w x , ,                 ",
"                            . . ~ ~ ~ ~ ~ ~ ~ ~ ~ ~ ~ ~ 3 . . , , ~ ~ p q , , r r y r r r r r r , , s z A B , ,                 ",
"                            . . d d d d d d d d d d d d e . . , , d d C D , , d E F G H I J K d , , i L M N , ,                 ",
"                            . . d d d d d d d d d d d d e . . , , d d C O , , d P Q R S T U d d , , i V W X , ,                 ",
"                            . . d d d d d d d d d d d d e . . , , d d Y Z , , `  .....+.@.#.$.%., , i V &.*., ,                 ",
"                            . . =.=.=.=.=.=.=.=.=.=.=.-.3 . . , , =.=.;.>., , ,.'.).!.~.{.].^./., , s (._.:., ,                 ",
"                            . . =.=.=.=.=.=.=.=.=.=.=.-.3 . . , , =.=.;.q , , <.[.}.|.1.2.3.4.5., , s 6.7.8., ,                 ",
"                            . . =.=.=.=.=.=.=.=.=.=.=.9.0.. . , , =.=.a.b., , c.d.e.f.g.h.i.j.k., , s l.m.n., ,                 ",
"                            . . o.o.o.o.o.o.o.o.o.o.o.9.p.. . , , q.o.o.p., , r.s.t.u.v.w.x.y.z., , i A.B.C., ,                 ",
"                      / * ^ . . o.o.o.o.o.o.o.o.o.o.o.D.p.. . , , q.o.D.p., , q.E.F.G.H.I.J.K.L., , i M.B.C., , ^ /             ",
"                      * / ^ . . . . . . . . . . . . . . . . . , , , , , , , , , , , , , , , , , , , , , , , , , N./             ",
"                    ^ * ^ * . . . . . . . . . . . . . . . . . , , , , , , , , , , , , , , , , , , , , , , , , , / N.^           ",
"                                                                                                                                ",
"                                                                                                                                ",
"                                                                                                                                ",
"                                                                                                                                ",
"                                                                                                                                ",
"                                                                                                                                ",
"                                                                                                                                ",
"                                                                                                                                ",
"                                                                                                                                ",
"                                                                                                                                ",
"                                                                                                                                ",
"                                                                                                                                ",
"                                                                                                                                ",
"                                                                                                                                ",
"                                                                                                                                "};
