/* XPM */
static char * Untitled_xpm[] = {
"64 64 163 2",
"  	c #509B66",
". 	c #FFB059",
"+ 	c #FBD34F",
"@ 	c #88353D",
"# 	c #FBC923",
"$ 	c #FFD23B",
"% 	c #FFDD6B",
"& 	c #953740",
"* 	c #A7434D",
"= 	c #FFDA5E",
"- 	c #FBA546",
"; 	c #7B252D",
"> 	c #732A31",
", 	c #6E282F",
"' 	c #842A32",
") 	c #FFD548",
"! 	c #B4525C",
"~ 	c #672A18",
"{ 	c #6E1F27",
"] 	c #77212A",
"^ 	c #944445",
"/ 	c #8D4140",
"( 	c #873736",
"_ 	c #8D4645",
": 	c #6E151E",
"< 	c #773037",
"[ 	c #84353D",
"} 	c #FFC400",
"| 	c #FFC812",
"1 	c #F6CD41",
"2 	c #FBAF5B",
"3 	c #FCD85E",
"4 	c #A37D00",
"5 	c #732B2E",
"6 	c #74393D",
"7 	c #76302E",
"8 	c #652C11",
"9 	c #6F2B36",
"0 	c #732940",
"a 	c #763136",
"b 	c #411100",
"c 	c #772555",
"d 	c #752A3F",
"e 	c #51200F",
"f 	c #96463F",
"g 	c #8A3F3C",
"h 	c #9C4241",
"i 	c #93484D",
"j 	c #96523D",
"k 	c #794223",
"l 	c #964A4E",
"m 	c #A35A49",
"n 	c #7E3D1F",
"o 	c #9D433A",
"p 	c #9A4854",
"q 	c #93463C",
"r 	c #7C2E17",
"s 	c #782B25",
"t 	c #7D2B20",
"u 	c #7B232F",
"v 	c #832E33",
"w 	c #D29252",
"x 	c #FFE764",
"y 	c #651C2F",
"z 	c #661E22",
"A 	c #712527",
"B 	c #772937",
"C 	c #752C26",
"D 	c #641200",
"E 	c #6F2518",
"F 	c #792735",
"G 	c #E38C3D",
"H 	c #F8B469",
"I 	c #78332C",
"J 	c #F8BD57",
"K 	c #782D0D",
"L 	c #752E3C",
"M 	c #773634",
"N 	c #5B0A00",
"O 	c #7C2C35",
"P 	c #6B1C0F",
"Q 	c #782E2B",
"R 	c #C76854",
"S 	c #FFBC4D",
"T 	c #69161E",
"U 	c #FFB06A",
"V 	c #F3A930",
"W 	c #782F28",
"X 	c #833038",
"Y 	c #712822",
"Z 	c #5D0D00",
"` 	c #9A4644",
" .	c #984346",
"..	c #994749",
"+.	c #954639",
"@.	c #8F4544",
"#.	c #A64A3B",
"$.	c #BE564D",
"%.	c #F9B138",
"&.	c #7D262F",
"*.	c #FEAE59",
"=.	c #9D4031",
"-.	c #983E47",
";.	c #9F4A43",
">.	c #9B464D",
",.	c #94463C",
"'.	c #7F311A",
").	c #95494B",
"!.	c #9D4841",
"~.	c #9F3A4C",
"{.	c #CF8139",
"].	c #F6B14A",
"^.	c #8B3041",
"/.	c #993D42",
"(.	c #9E4251",
"_.	c #9B483A",
":.	c #A2494F",
"<.	c #934338",
"[.	c #7B2D17",
"}.	c #8B3840",
"|.	c #772A32",
"1.	c #883D41",
"2.	c #82332C",
"3.	c #8A3E40",
"4.	c #8D3F3F",
"5.	c #8D3F35",
"6.	c #903E42",
"7.	c #883644",
"8.	c #8B4134",
"9.	c #8A3D43",
"0.	c #893B49",
"a.	c #863F3B",
"b.	c #8F3F4C",
"c.	c #8E4139",
"d.	c #72220B",
"e.	c #79263A",
"f.	c #631C2A",
"g.	c #6E232A",
"h.	c #78253F",
"i.	c #792A2F",
"j.	c #722722",
"k.	c #7A2A45",
"l.	c #762B32",
"m.	c #6B2327",
"n.	c #732B36",
"o.	c #702A35",
"p.	c #6E2C2E",
"q.	c #762C3D",
"r.	c #752B2A",
"s.	c #671601",
"t.	c #FADB29",
"u.	c #FFBF3A",
"v.	c #761A33",
"w.	c #723031",
"x.	c #78282B",
"y.	c #712C27",
"z.	c #6F2D37",
"A.	c #6D2E36",
"B.	c #6F302B",
"C.	c #682931",
"D.	c #682A2B",
"E.	c #782245",
"F.	c #FFE74C",
"                                                                                                                                ",
"                                                                                                                                ",
"                                                                                                                                ",
"                                                                                                                                ",
"                                                                                                                                ",
"                                                                                                                                ",
"                                                                                                                                ",
"                                                                                                                                ",
"                                                                                                                                ",
"                                                                                                                                ",
"                                                                                                                                ",
"                                                                                                                                ",
"                                                                                                                                ",
"                                                                                                                                ",
"                                                                                                                                ",
"                                                                                                                                ",
"                                                                                                                                ",
"                                                                                                                                ",
"                                        . . . . . + + @ @ @ @ @ @ @ # $ + % @ @ @ @ @ @ @ @ & * $ =                             ",
"                                      . - - - - - - $ $ ; > > > > , ' # $ ) % > > > > > > > > & ! $ =                           ",
"                                    . - - > > ~ - - - $ $ { > > > > ] ; # $ ) % > > > > > > > > & * $ =                         ",
"                                  . - - ^ ^ ^ / ( - - - $ $ ^ ^ ^ ^ ^ / ( # $ ) % ^ ^ ^ ^ ^ ^ ^ ^ _ / $ =                       ",
"                                . - - ^ ^ ^ ^ ^ / ( - - - $ $ ^ ^ ^ ^ ^ / ( # $ ) % ^ ^ ^ ^ ^ ^ ^ ^ _ / $ =                     ",
"                              . - - ^ ^ ^ ^ ^ ^ ^ / ( - - - $ $ ^ ^ ^ ^ ^ / ( # $ ) % ^ ^ ^ ^ ^ ^ ^ ^ _ / $ =                   ",
"                              . - ^ ^ ^ ^ ^ ^ ^ ^ ^ / ( - - - $ $ ^ ^ ^ ^ ^ / ( # $ ) % ^ ^ ^ ^ ^ ^ ^ ^ _ / $ =                 ",
"                            . - > > > > > > > > > > > > ~ - - $ $ { > > > > > ] : # $ ) % > > > > > > > < [ $ =                 ",
"                            - - > > > > > > > > > > > > ~ - - $ $ { > > > > > > ] : # $ ) > > > > > > > < [ $ =                 ",
"                            - - > > > > > > > > > > > > ~ - - $ $ { > > > > > > ] : # $ ) > > > > > > > < [ $ =                 ",
"                            - - ^ ^ ^ ^ ^ ^ ^ ^ ^ ^ ^ / ( - - $ $ ^ ^ ^ ^ ^ ^ ^ / ( # $ ) ^ ^ ^ ^ ^ ^ ^ / ( $ =                 ",
"                            - - ^ ^ ^ ^ ^ ^ ^ ^ ^ ^ ^ / ( - - $ $ ^ ^ ^ ^ ^ ^ ^ / ( # $ ) ^ ^ ^ ^ ^ ^ ^ / ( $ =                 ",
"                            - - ^ ^ ^ ^ ^ ^ ^ ^ ^ ^ ^ / ( - - $ $ ^ ^ ^ ^ ^ ^ ^ / ( } $ | ^ ^ ^ ^ ^ ^ ^ / ( $ =                 ",
"                            - - - - - - - - - - - - - - - - - 1 1 1 1 1 1 1 1 1 1 1 1 } 1 1 1 1 1 1 1 1 1 1 1 1                 ",
"                            2 2 2 2 2 2 2 2 2 2 2 2 2 2 2 2 2 3 3 3 3 3 3 3 3 3 3 3 3 4 3 3 3 3 3 3 3 3 3 3 3 3                 ",
"                            2 2 2 2 2 2 2 2 2 2 2 2 2 2 2 2 2 3 3 3 3 3 3 3 3 3 3 3 3 } 3 3 3 3 3 3 3 3 3 3 3 3                 ",
"                            2 2 5 5 5 5 5 5 5 5 5 5 5 5 ~ 2 2 3 3 6 6 7 8 3 3 9 9 9 9 9 9 9 9 9 3 3 9 0 a b 3 3                 ",
"                            2 2 5 5 5 5 5 5 5 5 5 5 5 5 ~ 2 2 3 3 6 6 7 8 3 3 9 5 5 5 5 5 5 5 5 3 3 9 c d e 3 3                 ",
"                            2 2 ^ ^ ^ ^ ^ ^ ^ ^ ^ ^ ^ ^ ( 2 2 3 3 ^ ^ f g 3 3 h h h h h h h h h 3 3 i i j k 3 3                 ",
"                            2 2 ^ ^ ^ ^ ^ ^ ^ ^ ^ ^ ^ ^ ( 2 2 3 3 ^ ^ f g 3 3 h h h h h h h h h 3 3 i l m n 3 3                 ",
"                            2 2 ^ ^ ^ ^ ^ ^ ^ ^ ^ ^ ^ ^ ( 2 2 3 3 ^ ^ f g 3 3 h h o h h h h h h 3 3 i p q r 3 3                 ",
"                            2 2 5 5 5 5 5 5 5 5 5 5 5 5 ~ 2 2 3 3 5 5 s t 3 3 5 u v w x y z A 5 3 3 9 B C D 3 3                 ",
"                            2 2 5 5 5 5 5 5 5 5 5 5 5 5 ~ 2 2 3 3 5 5 s E 3 3 5 F G H I J K 5 5 3 3 9 L M N 3 3                 ",
"                            2 2 5 5 5 5 5 5 5 5 5 5 5 5 ~ 2 2 3 3 5 5 O P 3 3 Q R S S T U V W X 3 3 9 L Y Z 3 3                 ",
"                            2 2 ` ` ` ` ` ` ` ` ` ` `  .( 2 2 3 3 ` ` ..+.3 3 @.#.$.%.&.*.=.-.;.3 3 i >.,.'.3 3                 ",
"                            2 2 ` ` ` ` ` ` ` ` ` ` `  .( 2 2 3 3 ` ` ..g 3 3 ).!.~.{.].^./.(._.3 3 i :.<.[.3 3                 ",
"                            2 2 ` ` ` ` ` ` ` ` ` ` ` }.|.2 2 3 3 ` ` 1.2.3 3 3.4.5.6.7.8.9.0.a.3 3 i b.c.d.3 3                 ",
"                            2 2 e.e.e.e.e.e.e.e.e.e.e.}.f.2 2 3 3 g.e.e.f.3 3 h.i.j.k.l.m.n.o.p.3 3 9 q.r.s.3 3                 ",
"                      t.$ u.2 2 e.e.e.e.e.e.e.e.e.e.e.v.f.2 2 3 3 g.e.v.f.3 3 g.w.x.y.z.A.B.C.D.3 3 9 E.r.s.3 3 u.t.            ",
"                      $ t.u.2 2 2 2 2 2 2 2 2 2 2 2 2 2 2 2 2 3 3 3 3 3 3 3 3 3 3 3 3 3 3 3 3 3 3 3 3 3 3 3 3 3 F.t.            ",
"                    u.$ u.$ 2 2 2 2 2 2 2 2 2 2 2 2 2 2 2 2 2 3 3 3 3 3 3 3 3 3 3 3 3 3 3 3 3 3 3 3 3 3 3 3 3 3 t.F.u.          ",
"                                                                                                                                ",
"                                                                                                                                ",
"                                                                                                                                ",
"                                                                                                                                ",
"                                                                                                                                ",
"                                                                                                                                ",
"                                                                                                                                ",
"                                                                                                                                ",
"                                                                                                                                ",
"                                                                                                                                ",
"                                                                                                                                ",
"                                                                                                                                ",
"                                                                                                                                ",
"                                                                                                                                ",
"                                                                                                                                "};
